<svg xmlns="http://www.w3.org/2000/svg" xmlns:xlink="http://www.w3.org/1999/xlink" width="680" height="392pt" viewBox="0 0 510 392"><g id="graph1" class="graph" transform="scale(1 1) rotate(0) translate(4 388)"><title>G</title><polygon fill="#00f" stroke="#00f" points="-4 5 -4 -388 507 -388 507 5 -4 5"/><g id="graph2" class="cluster"><title>cluster_1</title><polygon fill="#00f" stroke="#000" points="49 -291 49 -376 489 -376 489 -291 49 -291"/><text x="269" y="-360.8" fill="#fff" font-family="Times,serif" font-size="14" text-anchor="middle">X11 Colors</text></g><g id="graph3" class="cluster"><title>cluster_2</title><polygon fill="#00f" stroke="#000" points="49 -198 49 -283 489 -283 489 -198 49 -198"/><text x="269" y="-267.8" fill="#fff" font-family="Times,serif" font-size="14" text-anchor="middle">SVG Colors</text></g><g id="graph4" class="cluster"><title>cluster_3</title><polygon fill="#00f" stroke="#000" points="8 -103 8 -190 494 -190 494 -103 8 -103"/><text x="251" y="-174.8" fill="#fff" font-family="Times,serif" font-size="14" text-anchor="middle">Brewer - accent</text></g><g id="graph5" class="cluster"><title>cluster_4</title><polygon fill="#00f" stroke="#000" points="8 -8 8 -95 494 -95 494 -8 8 -8"/><text x="251" y="-79.8" fill="#fff" font-family="Times,serif" font-size="14" text-anchor="middle">Brewer - blues</text></g><g id="node2" class="node"><title>n5</title><defs><linearGradient id="l_0" x1="427" x2="481" y1="-322" y2="-322" gradientUnits="userSpaceOnUse"><stop offset="0" style="stop-color:antiquewhite;stop-opacity:1."/><stop offset="1" style="stop-color:aquamarine;stop-opacity:1."/></linearGradient></defs><polygon fill="url(#l_0)" stroke="#000" points="481 -340 427 -340 427 -304 481 -304 481 -340"/><text x="454" y="-318.3" font-family="Times,serif" font-size="14" text-anchor="middle">n5</text></g><g id="node3" class="node"><title>n4</title><defs><linearGradient id="l_1" x1="355" x2="409" y1="-322" y2="-322" gradientUnits="userSpaceOnUse"><stop offset="0" style="stop-color:#8b7d6b;stop-opacity:1."/><stop offset="1" style="stop-color:#00e;stop-opacity:1."/></linearGradient></defs><ellipse cx="382" cy="-322" fill="url(#l_1)" stroke="#000" rx="27" ry="18"/><text x="382" y="-318.3" font-family="Times,serif" font-size="14" text-anchor="middle">n4</text></g><g id="node4" class="node"><title>n3</title><defs><linearGradient id="l_2" x1="298.753" x2="337.247" y1="-322" y2="-322" gradientUnits="userSpaceOnUse"><stop offset="0" style="stop-color:#98f5ff;stop-opacity:1."/><stop offset="1" style="stop-color:#ff7f24;stop-opacity:1."/></linearGradient></defs><ellipse cx="318" cy="-322" fill="url(#l_2)" stroke="#000" rx="19.247" ry="19.497"/><text x="318" y="-318.3" font-family="Times,serif" font-size="14" text-anchor="middle">n3</text></g><g id="node11" class="node"><title>n9</title><defs><linearGradient id="l_3" x1="298.753" x2="337.247" y1="-229" y2="-229" gradientUnits="userSpaceOnUse"><stop offset="0" style="stop-color:deepskyblue;stop-opacity:1."/><stop offset="1" style="stop-color:gold;stop-opacity:1."/></linearGradient></defs><ellipse cx="318" cy="-229" fill="url(#l_3)" stroke="#000" rx="19.247" ry="19.497"/><text x="318" y="-225.3" font-family="Times,serif" font-size="14" text-anchor="middle">n9</text></g><g id="edge6" class="edge"><title>n3-&gt;n9</title><path fill="none" stroke="#000" d="M318,-302.145C318,-289.616 318,-272.926 318,-258.755"/><polygon fill="#000" stroke="#000" points="321.5 -258.52 318 -248.52 314.5 -258.52 321.5 -258.52"/></g><g id="node5" class="node"><title>n2</title><defs><linearGradient id="l_4" x1="225.639" x2="280.361" y1="-322" y2="-322" gradientUnits="userSpaceOnUse"><stop offset="0" style="stop-color:crimson;stop-opacity:1."/><stop offset="1" style="stop-color:#008b8b;stop-opacity:1."/></linearGradient></defs><polygon fill="url(#l_4)" stroke="#000" points="253 -340 225.639 -322 253 -304 280.361 -322 253 -340"/><text x="253" y="-318.3" font-family="Times,serif" font-size="14" text-anchor="middle">n2</text></g><g id="node6" class="node"><title>n1</title><defs><linearGradient id="l_5" x1="129.505" x2="206.495" y1="-327.75" y2="-327.75" gradientUnits="userSpaceOnUse"><stop offset="0" style="stop-color:#00b2ee;stop-opacity:1."/><stop offset="1" style="stop-color:firebrick;stop-opacity:1."/></linearGradient></defs><polygon fill="url(#l_5)" stroke="#000" points="168 -345 129.505 -310.5 206.495 -310.5 168 -345"/><text x="168" y="-318.3" font-family="Times,serif" font-size="14" text-anchor="middle">n1</text></g><g id="node7" class="node"><title>n0</title><defs><linearGradient id="l_6" x1="57" x2="111" y1="-323.719" y2="-323.719" gradientUnits="userSpaceOnUse"><stop offset="0" style="stop-color:#3d3d3d;stop-opacity:1."/><stop offset="1" style="stop-color:#e0e0e0;stop-opacity:1."/></linearGradient></defs><polygon fill="url(#l_6)" stroke="#000" points="111 -327.562 84 -340 57 -327.562 67.313 -307.438 100.687 -307.438 111 -327.562"/><text x="84" y="-318.3" font-family="Times,serif" font-size="14" text-anchor="middle">n0</text></g><g id="node9" class="node"><title>n11</title><defs><linearGradient id="l_7" x1="427" x2="481" y1="-229" y2="-229" gradientUnits="userSpaceOnUse"><stop offset="0" style="stop-color:bisque;stop-opacity:1."/><stop offset="1" style="stop-color:brown;stop-opacity:1."/></linearGradient></defs><polygon fill="url(#l_7)" stroke="#000" points="481 -247 427 -247 427 -211 481 -211 481 -247"/><text x="454" y="-225.3" font-family="Times,serif" font-size="14" text-anchor="middle">n11</text></g><g id="node10" class="node"><title>n10</title><defs><linearGradient id="l_8" x1="355" x2="409" y1="-229" y2="-229" gradientUnits="userSpaceOnUse"><stop offset="0" style="stop-color:green;stop-opacity:1."/><stop offset="1" style="stop-color:darkorchid;stop-opacity:1."/></linearGradient></defs><ellipse cx="382" cy="-229" fill="url(#l_8)" stroke="#000" rx="27" ry="18"/><text x="382" y="-225.3" font-family="Times,serif" font-size="14" text-anchor="middle">n10</text></g><g id="node18" class="node"><title>n15</title><defs><linearGradient id="l_9" x1="293.928" x2="342.072" y1="-135" y2="-135" gradientUnits="userSpaceOnUse"><stop offset="0" style="stop-color:#7fc97f;stop-opacity:1."/><stop offset="1" style="stop-color:#386cb0;stop-opacity:1."/></linearGradient></defs><ellipse cx="318" cy="-135" fill="url(#l_9)" stroke="#000" rx="24.072" ry="24.096"/><text x="318" y="-131.3" font-family="Times,serif" font-size="14" text-anchor="middle">n15</text></g><g id="edge7" class="edge"><title>n9-&gt;n15</title><path fill="none" stroke="#000" d="M318,-209.382C318,-197.948 318,-182.964 318,-169.519"/><polygon fill="#000" stroke="#000" points="321.5 -169.163 318 -159.164 314.5 -169.164 321.5 -169.163"/></g><g id="node12" class="node"><title>n8</title><defs><linearGradient id="l_10" x1="225.639" x2="280.361" y1="-229" y2="-229" gradientUnits="userSpaceOnUse"><stop offset="0" style="stop-color:lightseagreen;stop-opacity:1."/><stop offset="1" style="stop-color:orangered;stop-opacity:1."/></linearGradient></defs><polygon fill="url(#l_10)" stroke="#000" points="253 -247 225.639 -229 253 -211 280.361 -229 253 -247"/><text x="253" y="-225.3" font-family="Times,serif" font-size="14" text-anchor="middle">n8</text></g><g id="node13" class="node"><title>n7</title><defs><linearGradient id="l_11" x1="129.505" x2="206.495" y1="-234.75" y2="-234.75" gradientUnits="userSpaceOnUse"><stop offset="0" style="stop-color:turquoise;stop-opacity:1."/><stop offset="1" style="stop-color:salmon;stop-opacity:1."/></linearGradient></defs><polygon fill="url(#l_11)" stroke="#000" points="168 -252 129.505 -217.5 206.495 -217.5 168 -252"/><text x="168" y="-225.3" font-family="Times,serif" font-size="14" text-anchor="middle">n7</text></g><g id="node14" class="node"><title>n6</title><defs><linearGradient id="l_12" x1="57" x2="111" y1="-230.719" y2="-230.719" gradientUnits="userSpaceOnUse"><stop offset="0" style="stop-color:snow;stop-opacity:1."/><stop offset="1" style="stop-color:black;stop-opacity:1."/></linearGradient></defs><polygon fill="url(#l_12)" stroke="#000" points="111 -234.562 84 -247 57 -234.562 67.313 -214.438 100.687 -214.438 111 -234.562"/><text x="84" y="-225.3" font-family="Times,serif" font-size="14" text-anchor="middle">n6</text></g><g id="node16" class="node"><title>n17</title><defs><linearGradient id="l_13" x1="432" x2="486" y1="-135" y2="-135" gradientUnits="userSpaceOnUse"><stop offset="0" style="stop-color:#7fc97f;stop-opacity:1."/><stop offset="1" style="stop-color:#fdc086;stop-opacity:1."/></linearGradient></defs><polygon fill="url(#l_13)" stroke="#000" points="486 -153 432 -153 432 -117 486 -117 486 -153"/><text x="459" y="-131.3" font-family="Times,serif" font-size="14" text-anchor="middle">n17</text></g><g id="node17" class="node"><title>n16</title><defs><linearGradient id="l_14" x1="360" x2="414" y1="-135" y2="-135" gradientUnits="userSpaceOnUse"><stop offset="0" style="stop-color:#7fc97f;stop-opacity:1."/><stop offset="1" style="stop-color:#ff9;stop-opacity:1."/></linearGradient></defs><ellipse cx="387" cy="-135" fill="url(#l_14)" stroke="#000" rx="27" ry="18"/><text x="387" y="-131.3" font-family="Times,serif" font-size="14" text-anchor="middle">n16</text></g><g id="node25" class="node"><title>n21</title><defs><linearGradient id="l_15" x1="293.928" x2="342.072" y1="-40" y2="-40" gradientUnits="userSpaceOnUse"><stop offset="0" style="stop-color:#eff3ff;stop-opacity:1."/><stop offset="1" style="stop-color:#3182bd;stop-opacity:1."/></linearGradient></defs><ellipse cx="318" cy="-40" fill="url(#l_15)" stroke="#000" rx="24.072" ry="24.096"/><text x="318" y="-36.3" font-family="Times,serif" font-size="14" text-anchor="middle">n21</text></g><g id="edge8" class="edge"><title>n15-&gt;n21</title><path fill="none" stroke="#000" d="M318,-110.532C318,-99.5449 318,-86.2625 318,-74.263"/><polygon fill="#000" stroke="#000" points="321.5 -74.138 318 -64.138 314.5 -74.138 321.5 -74.138"/></g><g id="node19" class="node"><title>n14</title><defs><linearGradient id="l_16" x1="207.987" x2="276.013" y1="-135" y2="-135" gradientUnits="userSpaceOnUse"><stop offset="0" style="stop-color:#7fc97f;stop-opacity:1."/><stop offset="1" style="stop-color:#f0027f;stop-opacity:1."/></linearGradient></defs><polygon fill="url(#l_16)" stroke="#000" points="242 -153 207.987 -135 242 -117 276.013 -135 242 -153"/><text x="242" y="-131.3" font-family="Times,serif" font-size="14" text-anchor="middle">n14</text></g><g id="node20" class="node"><title>n13</title><defs><linearGradient id="l_17" x1="93.856" x2="190.144" y1="-140.75" y2="-140.75" gradientUnits="userSpaceOnUse"><stop offset="0" style="stop-color:#7fc97f;stop-opacity:1."/><stop offset="1" style="stop-color:#bf5b17;stop-opacity:1."/></linearGradient></defs><polygon fill="url(#l_17)" stroke="#000" points="142 -158 93.856 -123.5 190.144 -123.5 142 -158"/><text x="142" y="-131.3" font-family="Times,serif" font-size="14" text-anchor="middle">n13</text></g><g id="node21" class="node"><title>n12</title><defs><linearGradient id="l_18" x1="16.414" x2="75.586" y1="-136.719" y2="-136.719" gradientUnits="userSpaceOnUse"><stop offset="0" style="stop-color:#7fc97f;stop-opacity:1."/><stop offset="1" style="stop-color:#666;stop-opacity:1."/></linearGradient></defs><polygon fill="url(#l_18)" stroke="#000" points="75.586 -140.562 46 -153 16.414 -140.562 27.715 -120.438 64.285 -120.438 75.586 -140.562"/><text x="46" y="-131.3" font-family="Times,serif" font-size="14" text-anchor="middle">n12</text></g><g id="node23" class="node"><title>n23</title><defs><linearGradient id="l_19" x1="432" x2="486" y1="-40" y2="-40" gradientUnits="userSpaceOnUse"><stop offset="0" style="stop-color:#deebf7;stop-opacity:1."/><stop offset="1" style="stop-color:#9ecae1;stop-opacity:1."/></linearGradient></defs><polygon fill="url(#l_19)" stroke="#000" points="486 -58 432 -58 432 -22 486 -22 486 -58"/><text x="459" y="-36.3" font-family="Times,serif" font-size="14" text-anchor="middle">n23</text></g><g id="node24" class="node"><title>n22</title><defs><linearGradient id="l_20" x1="360" x2="414" y1="-40" y2="-40" gradientUnits="userSpaceOnUse"><stop offset="0" style="stop-color:#eff3ff;stop-opacity:1."/><stop offset="1" style="stop-color:#6baed6;stop-opacity:1."/></linearGradient></defs><ellipse cx="387" cy="-40" fill="url(#l_20)" stroke="#000" rx="27" ry="18"/><text x="387" y="-36.3" font-family="Times,serif" font-size="14" text-anchor="middle">n22</text></g><g id="node26" class="node"><title>n20</title><defs><linearGradient id="l_21" x1="207.987" x2="276.013" y1="-40" y2="-40" gradientUnits="userSpaceOnUse"><stop offset="0" style="stop-color:#eff3ff;stop-opacity:1."/><stop offset="1" style="stop-color:#3182bd;stop-opacity:1."/></linearGradient></defs><polygon fill="url(#l_21)" stroke="#000" points="242 -58 207.987 -40 242 -22 276.013 -40 242 -58"/><text x="242" y="-36.3" font-family="Times,serif" font-size="14" text-anchor="middle">n20</text></g><g id="node27" class="node"><title>n19</title><defs><linearGradient id="l_22" x1="93.856" x2="190.144" y1="-45.75" y2="-45.75" gradientUnits="userSpaceOnUse"><stop offset="0" style="stop-color:#eff3ff;stop-opacity:1."/><stop offset="1" style="stop-color:#2171b5;stop-opacity:1."/></linearGradient></defs><polygon fill="url(#l_22)" stroke="#000" points="142 -63 93.856 -28.5 190.144 -28.5 142 -63"/><text x="142" y="-36.3" font-family="Times,serif" font-size="14" text-anchor="middle">n19</text></g><g id="node28" class="node"><title>n18</title><defs><linearGradient id="l_23" x1="16.414" x2="75.586" y1="-41.719" y2="-41.719" gradientUnits="userSpaceOnUse"><stop offset="0" style="stop-color:#f7fbff;stop-opacity:1."/><stop offset="1" style="stop-color:#2171b5;stop-opacity:1."/></linearGradient></defs><polygon fill="url(#l_23)" stroke="#000" points="75.586 -45.562 46 -58 16.414 -45.562 27.715 -25.438 64.285 -25.438 75.586 -45.562"/><text x="46" y="-36.3" font-family="Times,serif" font-size="14" text-anchor="middle">n18</text></g></g></svg>