<svg xmlns="http://www.w3.org/2000/svg" xmlns:xlink="http://www.w3.org/1999/xlink" width="464pt" height="176" viewBox="0 0 464 132"><g id="graph1" class="graph" transform="scale(1 1) rotate(0) translate(4 128)"><title>G</title><defs><radialGradient id="r_0" cx="50%" cy="50%" r="75%" fx="50%" fy="50%"><stop offset="0" style="stop-color:yellow;stop-opacity:1."/><stop offset="1" style="stop-color:blue;stop-opacity:1."/></radialGradient></defs><polygon fill="url(#r_0)" stroke="none" points="-4 5 -4 -128 461 -128 461 5 -4 5"/><text x="228" y="-7.8" font-family="Times,serif" font-size="14" text-anchor="middle">Graph</text><g id="graph2" class="cluster"><title>cluster_1</title><defs><radialGradient id="r_1" cx="50%" cy="50%" r="75%" fx="50%" fy="50%"><stop offset="0" style="stop-color:green;stop-opacity:1."/><stop offset="1" style="stop-color:magenta;stop-opacity:1."/></radialGradient></defs><polygon fill="url(#r_1)" stroke="#000" points="8 -31 8 -116 448 -116 448 -31 8 -31"/><text x="228" y="-100.8" fill="#fff" font-family="Times,serif" font-size="14" text-anchor="middle">Cluster</text></g><g id="node2" class="node"><title>n5</title><defs><radialGradient id="r_2" cx="50%" cy="50%" r="75%" fx="50%" fy="50%"><stop offset="0" style="stop-color:antiquewhite;stop-opacity:1."/><stop offset="1" style="stop-color:aquamarine;stop-opacity:1."/></radialGradient></defs><polygon fill="url(#r_2)" stroke="#000" points="440 -80 386 -80 386 -44 440 -44 440 -80"/><text x="413" y="-58.3" font-family="Times,serif" font-size="14" text-anchor="middle">n5</text></g><g id="node3" class="node"><title>n4</title><defs><radialGradient id="r_3" cx="50%" cy="50%" r="75%" fx="50%" fy="50%"><stop offset="0" style="stop-color:#8b7d6b;stop-opacity:1."/><stop offset="1" style="stop-color:#00e;stop-opacity:1."/></radialGradient></defs><ellipse cx="341" cy="-62" fill="url(#r_3)" stroke="#000" rx="27" ry="18"/><text x="341" y="-58.3" font-family="Times,serif" font-size="14" text-anchor="middle">n4</text></g><g id="node4" class="node"><title>n3</title><defs><radialGradient id="r_4" cx="50%" cy="50%" r="75%" fx="50%" fy="50%"><stop offset="0" style="stop-color:#98f5ff;stop-opacity:1."/><stop offset="1" style="stop-color:#ff7f24;stop-opacity:1."/></radialGradient></defs><ellipse cx="277" cy="-62" fill="url(#r_4)" stroke="#000" rx="19.247" ry="19.497"/><text x="277" y="-58.3" font-family="Times,serif" font-size="14" text-anchor="middle">n3</text></g><g id="node5" class="node"><title>n2</title><defs><radialGradient id="r_5" cx="50%" cy="50%" r="75%" fx="50%" fy="50%"><stop offset="0" style="stop-color:crimson;stop-opacity:1."/><stop offset="1" style="stop-color:#008b8b;stop-opacity:1."/></radialGradient></defs><polygon fill="url(#r_5)" stroke="#000" points="212 -80 184.639 -62 212 -44 239.361 -62 212 -80"/><text x="212" y="-58.3" font-family="Times,serif" font-size="14" text-anchor="middle">n2</text></g><g id="node6" class="node"><title>n1</title><defs><radialGradient id="r_6" cx="50%" cy="50%" r="75%" fx="50%" fy="50%"><stop offset="0" style="stop-color:#00b2ee;stop-opacity:1."/><stop offset="1" style="stop-color:firebrick;stop-opacity:1."/></radialGradient></defs><polygon fill="url(#r_6)" stroke="#000" points="127 -85 88.505 -50.5 165.495 -50.5 127 -85"/><text x="127" y="-58.3" font-family="Times,serif" font-size="14" text-anchor="middle">n1</text></g><g id="node7" class="node"><title>n0</title><defs><radialGradient id="r_7" cx="50%" cy="50%" r="75%" fx="50%" fy="50%"><stop offset="0" style="stop-color:#3d3d3d;stop-opacity:1."/><stop offset="1" style="stop-color:#e0e0e0;stop-opacity:1."/></radialGradient></defs><polygon fill="url(#r_7)" stroke="#000" points="70 -67.562 43 -80 16 -67.562 26.313 -47.438 59.687 -47.438 70 -67.562"/><text x="43" y="-58.3" font-family="Times,serif" font-size="14" text-anchor="middle">n0</text></g></g></svg>