<svg xmlns="http://www.w3.org/2000/svg" xmlns:xlink="http://www.w3.org/1999/xlink" width="265pt" height="1103pt" viewBox="0 0 265 1103"><g id="graph1" class="graph" transform="scale(1 1) rotate(0) translate(4 1099)"><title>G</title><polygon fill="#00f" stroke="#00f" points="-4 5 -4 -1099 262 -1099 262 5 -4 5"/><g id="graph2" class="cluster"><title>cluster_1</title><polygon fill="#00f" stroke="#000" points="8 -8 8 -1087 249 -1087 249 -8 8 -8"/><text x="128.5" y="-1071.8" fill="#fff" font-family="Times,serif" font-size="14" text-anchor="middle">Shape Variations</text></g><g id="node2" class="node"><title>n27</title><defs><linearGradient id="l_0" x1="175" x2="229" y1="-106" y2="-106" gradientUnits="userSpaceOnUse"><stop offset="0" style="stop-color:bisque;stop-opacity:1."/><stop offset="1" style="stop-color:brown;stop-opacity:1."/></linearGradient></defs><polygon fill="url(#l_0)" stroke="#000" points="229 -124 175 -124 175 -88 229 -88 229 -124"/><text x="202" y="-102.3" font-family="Times,serif" font-size="14" text-anchor="middle">n27</text></g><g id="node3" class="node"><title>n26</title><defs><linearGradient id="l_1" x1="175" x2="229" y1="-178" y2="-178" gradientUnits="userSpaceOnUse"><stop offset="0" style="stop-color:bisque;stop-opacity:1."/><stop offset="1" style="stop-color:brown;stop-opacity:1."/></linearGradient></defs><ellipse cx="202" cy="-178" fill="url(#l_1)" stroke="#000" rx="27" ry="18"/><text x="202" y="-174.3" font-family="Times,serif" font-size="14" text-anchor="middle">n26</text></g><g id="edge28" class="edge"><title>n26-&gt;n27</title><path fill="none" stroke="#000" d="M202,-159.697C202,-151.983 202,-142.712 202,-134.112"/><polygon fill="#000" stroke="#000" points="205.5 -134.104 202 -124.104 198.5 -134.104 205.5 -134.104"/></g><g id="node4" class="node"><title>n25</title><defs><linearGradient id="l_2" x1="173.386" x2="230.614" y1="-255" y2="-255" gradientUnits="userSpaceOnUse"><stop offset="0" style="stop-color:bisque;stop-opacity:1."/><stop offset="1" style="stop-color:brown;stop-opacity:1."/></linearGradient></defs><polygon fill="url(#l_2)" stroke="#000" points="204.648 -237.049 206.401 -237.148 208.136 -237.295 209.846 -237.491 211.523 -237.735 213.162 -238.027 214.755 -238.364 216.297 -238.748 217.782 -239.176 219.203 -239.647 220.557 -240.161 221.838 -240.715 223.042 -241.308 224.165 -241.939 225.203 -242.605 226.155 -243.306 227.018 -244.039 227.789 -244.801 228.468 -245.592 229.053 -246.408 229.545 -247.248 229.942 -248.109 230.247 -248.989 230.46 -249.886 230.581 -250.797 230.614 -251.719 230.56 -252.65 230.422 -253.587 230.202 -254.529 229.903 -255.471 229.529 -256.413 229.084 -257.35 228.57 -258.281 227.992 -259.203 227.353 -260.114 226.658 -261.011 225.909 -261.891 225.112 -262.752 224.27 -263.592 223.386 -264.408 222.464 -265.199 221.508 -265.961 220.522 -266.694 219.507 -267.395 218.469 -268.061 217.408 -268.692 216.328 -269.285 215.232 -269.839 214.121 -270.353 212.998 -270.824 211.865 -271.252 210.722 -271.636 209.573 -271.973 208.417 -272.265 207.256 -272.509 206.092 -272.705 204.925 -272.852 203.756 -272.951 202.585 -273 201.415 -273 200.244 -272.951 199.075 -272.852 197.908 -272.705 196.744 -272.509 195.583 -272.265 194.427 -271.973 193.278 -271.636 192.135 -271.252 191.002 -270.824 189.879 -270.353 188.768 -269.839 187.672 -269.285 186.592 -268.692 185.531 -268.061 184.493 -267.395 183.478 -266.694 182.492 -265.961 181.536 -265.199 180.614 -264.408 179.73 -263.592 178.888 -262.752 178.091 -261.891 177.342 -261.011 176.647 -260.114 176.008 -259.203 175.43 -258.281 174.916 -257.35 174.471 -256.413 174.097 -255.471 173.798 -254.529 173.578 -253.587 173.44 -252.65 173.386 -251.719 173.419 -250.797 173.54 -249.886 173.753 -248.989 174.058 -248.109 174.455 -247.248 174.947 -246.408 175.532 -245.592 176.211 -244.801 176.982 -244.039 177.845 -243.306 178.797 -242.605 179.835 -241.939 180.958 -241.308 182.162 -240.715 183.443 -240.161 184.797 -239.647 186.218 -239.176 187.703 -238.748 189.245 -238.364 190.838 -238.027 192.477 -237.735 194.154 -237.491 195.864 -237.295 197.599 -237.148 199.352 -237.049 201.116 -237 202.884 -237 204.648 -237.049"/><text x="202" y="-251.3" font-family="Times,serif" font-size="14" text-anchor="middle">n25</text></g><g id="edge27" class="edge"><title>n25-&gt;n26</title><path fill="none" stroke="#000" d="M202,-236.981C202,-227.936 202,-216.597 202,-206.351"/><polygon fill="#000" stroke="#000" points="205.5 -206.211 202 -196.211 198.5 -206.211 205.5 -206.211"/></g><g id="node5" class="node"><title>n24</title><defs><linearGradient id="l_3" x1="167.987" x2="236.013" y1="-332" y2="-332" gradientUnits="userSpaceOnUse"><stop offset="0" style="stop-color:bisque;stop-opacity:1."/><stop offset="1" style="stop-color:brown;stop-opacity:1."/></linearGradient></defs><polygon fill="url(#l_3)" stroke="#000" points="221.864 -350 182.136 -350 167.987 -314 236.013 -314 221.864 -350"/><text x="202" y="-328.3" font-family="Times,serif" font-size="14" text-anchor="middle">n24</text></g><g id="edge26" class="edge"><title>n24-&gt;n25</title><path fill="none" stroke="#000" d="M202,-313.981C202,-304.936 202,-293.597 202,-283.351"/><polygon fill="#000" stroke="#000" points="205.5 -283.211 202 -273.211 198.5 -283.211 205.5 -283.211"/></g><g id="node6" class="node"><title>n23</title><defs><linearGradient id="l_4" x1="167.109" x2="236.891" y1="-404" y2="-404" gradientUnits="userSpaceOnUse"><stop offset="0" style="stop-color:bisque;stop-opacity:1."/><stop offset="1" style="stop-color:brown;stop-opacity:1."/></linearGradient></defs><polygon fill="url(#l_4)" stroke="#000" points="236.891 -422 181.387 -422 167.109 -386 222.613 -386 236.891 -422"/><text x="202" y="-400.3" font-family="Times,serif" font-size="14" text-anchor="middle">n23</text></g><g id="edge25" class="edge"><title>n23-&gt;n24</title><path fill="none" stroke="#000" d="M202,-385.697C202,-377.983 202,-368.712 202,-360.112"/><polygon fill="#000" stroke="#000" points="205.5 -360.104 202 -350.104 198.5 -360.104 205.5 -360.104"/></g><g id="node7" class="node"><title>n22</title><defs><linearGradient id="l_5" x1="172.414" x2="231.586" y1="-483.719" y2="-483.719" gradientUnits="userSpaceOnUse"><stop offset="0" style="stop-color:bisque;stop-opacity:1."/><stop offset="1" style="stop-color:brown;stop-opacity:1."/></linearGradient></defs><polygon fill="url(#l_5)" stroke="#000" points="231.586 -487.562 202 -500 172.414 -487.562 172.441 -467.438 231.559 -467.438 231.586 -487.562"/><text x="202" y="-478.3" font-family="Times,serif" font-size="14" text-anchor="middle">n22</text></g><g id="edge24" class="edge"><title>n22-&gt;n23</title><path fill="none" stroke="#000" d="M202,-467.413C202,-457.737 202,-444.399 202,-432.536"/><polygon fill="#000" stroke="#000" points="205.5 -432.204 202 -422.204 198.5 -432.204 205.5 -432.204"/></g><g id="node8" class="node"><title>n21</title><defs><linearGradient id="l_6" x1="174" x2="228" y1="-564" y2="-564" gradientUnits="userSpaceOnUse"><stop offset="0" style="stop-color:bisque;stop-opacity:1."/><stop offset="1" style="stop-color:brown;stop-opacity:1."/></linearGradient></defs><polygon fill="url(#l_6)" stroke="#000" points="228 -556.544 228 -571.456 212.184 -582 189.816 -582 174 -571.456 174 -556.544 189.816 -546 212.184 -546 228 -556.544"/><text x="201" y="-560.3" font-family="Times,serif" font-size="14" text-anchor="middle">n21</text></g><g id="edge23" class="edge"><title>n21-&gt;n22</title><path fill="none" stroke="#000" d="M201.217,-545.641C201.346,-535.297 201.513,-521.941 201.66,-510.221"/><polygon fill="#000" stroke="#000" points="205.162 -510.093 201.787 -500.05 198.162 -510.006 205.162 -510.093"/></g><g id="node9" class="node"><title>n20</title><defs><linearGradient id="l_7" x1="172" x2="226" y1="-648" y2="-648" gradientUnits="userSpaceOnUse"><stop offset="0" style="stop-color:bisque;stop-opacity:1."/><stop offset="1" style="stop-color:brown;stop-opacity:1."/></linearGradient></defs><polygon fill="url(#l_7)" stroke="#000" points="226 -666 172 -666 172 -630 226 -630 226 -666"/><text x="199" y="-644.3" font-family="Times,serif" font-size="14" text-anchor="middle">n20</text></g><g id="edge22" class="edge"><title>n20-&gt;n21</title><path fill="none" stroke="#000" d="M199.424,-629.61C199.688,-618.774 200.034,-604.601 200.334,-592.291"/><polygon fill="#000" stroke="#000" points="203.838 -592.166 200.583 -582.084 196.84 -591.995 203.838 -592.166"/></g><g id="node10" class="node"><title>n19</title><defs><linearGradient id="l_8" x1="170.928" x2="219.072" y1="-734" y2="-734" gradientUnits="userSpaceOnUse"><stop offset="0" style="stop-color:bisque;stop-opacity:1."/><stop offset="1" style="stop-color:brown;stop-opacity:1."/></linearGradient></defs><ellipse cx="195" cy="-734" fill="url(#l_8)" stroke="#000" rx="24.072" ry="24.096"/><text x="195" y="-730.3" font-family="Times,serif" font-size="14" text-anchor="middle">n19</text></g><g id="edge21" class="edge"><title>n19-&gt;n20</title><path fill="none" stroke="#000" d="M196.114,-709.601C196.607,-699.261 197.189,-687.036 197.701,-676.284"/><polygon fill="#000" stroke="#000" points="201.204 -676.303 198.183 -666.147 194.212 -675.97 201.204 -676.303"/></g><g id="node11" class="node"><title>n18</title><defs><linearGradient id="l_9" x1="160.987" x2="229.013" y1="-812" y2="-812" gradientUnits="userSpaceOnUse"><stop offset="0" style="stop-color:bisque;stop-opacity:1."/><stop offset="1" style="stop-color:brown;stop-opacity:1."/></linearGradient></defs><polygon fill="url(#l_9)" stroke="#000" points="195 -830 160.987 -812 195 -794 229.013 -812 195 -830"/><text x="195" y="-808.3" font-family="Times,serif" font-size="14" text-anchor="middle">n18</text></g><g id="edge20" class="edge"><title>n18-&gt;n19</title><path fill="none" stroke="#000" d="M195,-793.754C195,-786.2 195,-777.066 195,-768.276"/><polygon fill="#000" stroke="#000" points="198.5 -768.228 195 -758.228 191.5 -768.228 198.5 -768.228"/></g><g id="node12" class="node"><title>n17</title><defs><linearGradient id="l_10" x1="167" x2="221" y1="-884" y2="-884" gradientUnits="userSpaceOnUse"><stop offset="0" style="stop-color:bisque;stop-opacity:1."/><stop offset="1" style="stop-color:brown;stop-opacity:1."/></linearGradient></defs><ellipse cx="194" cy="-884" fill="url(#l_10)" stroke="#000" rx="27" ry="18"/><text x="194" y="-880.3" font-family="Times,serif" font-size="14" text-anchor="middle">n17</text></g><g id="edge19" class="edge"><title>n17-&gt;n18</title><path fill="none" stroke="#000" d="M194.247,-865.697C194.357,-857.983 194.49,-848.712 194.613,-840.112"/><polygon fill="#000" stroke="#000" points="198.112 -840.153 194.756 -830.104 191.113 -840.053 198.112 -840.153"/></g><g id="node13" class="node"><title>n16</title><defs><linearGradient id="l_11" x1="165.843" x2="220.157" y1="-956" y2="-956" gradientUnits="userSpaceOnUse"><stop offset="0" style="stop-color:bisque;stop-opacity:1."/><stop offset="1" style="stop-color:brown;stop-opacity:1."/></linearGradient></defs><polygon fill="url(#l_11)" stroke="#000" points="220.157 -956 206.579 -974 179.421 -974 165.843 -956 179.421 -938 206.579 -938 220.157 -956"/><text x="193" y="-952.3" font-family="Times,serif" font-size="14" text-anchor="middle">n16</text></g><g id="edge18" class="edge"><title>n16-&gt;n17</title><path fill="none" stroke="#000" d="M193.247,-937.697C193.357,-929.983 193.49,-920.712 193.613,-912.112"/><polygon fill="#000" stroke="#000" points="197.112 -912.153 193.756 -902.104 190.113 -912.053 197.112 -912.153"/></g><g id="node14" class="node"><title>n15</title><defs><linearGradient id="l_12" x1="144.856" x2="241.144" y1="-1027.25" y2="-1027.25" gradientUnits="userSpaceOnUse"><stop offset="0" style="stop-color:bisque;stop-opacity:1."/><stop offset="1" style="stop-color:brown;stop-opacity:1."/></linearGradient></defs><polygon fill="url(#l_12)" stroke="#000" points="193 -1010 241.144 -1044.5 144.856 -1044.5 193 -1010"/><text x="193" y="-1029.3" font-family="Times,serif" font-size="14" text-anchor="middle">n15</text></g><g id="edge17" class="edge"><title>n15-&gt;n16</title><path fill="none" stroke="#000" d="M193,-1009.9C193,-1001.88 193,-992.724 193,-984.307"/><polygon fill="#000" stroke="#000" points="196.5 -984.183 193 -974.183 189.5 -984.183 196.5 -984.183"/></g><g id="node15" class="node"><title>n14</title><defs><linearGradient id="l_13" x1="77.414" x2="136.586" y1="-35.719" y2="-35.719" gradientUnits="userSpaceOnUse"><stop offset="0" style="stop-color:bisque;stop-opacity:1."/><stop offset="1" style="stop-color:brown;stop-opacity:1."/></linearGradient></defs><polygon fill="url(#l_13)" stroke="#000" points="136.586 -39.562 107 -52 77.414 -39.562 88.715 -19.438 125.285 -19.438 136.586 -39.562"/><text x="107" y="-30.3" font-family="Times,serif" font-size="14" text-anchor="middle">n14</text></g><g id="node16" class="node"><title>n13</title><defs><linearGradient id="l_14" x1="80" x2="134" y1="-106" y2="-106" gradientUnits="userSpaceOnUse"><stop offset="0" style="stop-color:bisque;stop-opacity:1."/><stop offset="1" style="stop-color:brown;stop-opacity:1."/></linearGradient></defs><polygon fill="url(#l_14)" stroke="#000" points="134 -124 80 -124 80 -88 134 -88 134 -124"/><text x="107" y="-102.3" font-family="Times,serif" font-size="14" text-anchor="middle">n13</text></g><g id="edge15" class="edge"><title>n13-&gt;n14</title><path fill="none" stroke="#000" d="M107,-87.6966C107,-79.9827 107,-70.7125 107,-62.1124"/><polygon fill="#000" stroke="#000" points="110.5 -62.104 107 -52.104 103.5 -62.104 110.5 -62.104"/></g><g id="node17" class="node"><title>n12</title><defs><linearGradient id="l_15" x1="80" x2="134" y1="-178.891" y2="-178.891" gradientUnits="userSpaceOnUse"><stop offset="0" style="stop-color:bisque;stop-opacity:1."/><stop offset="1" style="stop-color:brown;stop-opacity:1."/></linearGradient></defs><polygon fill="url(#l_15)" stroke="#000" points="134 -173.995 128.652 -189.223 107 -196 85.348 -189.223 80 -173.995 94.984 -161.783 119.016 -161.783 134 -173.995"/><text x="107" y="-174.3" font-family="Times,serif" font-size="14" text-anchor="middle">n12</text></g><g id="edge14" class="edge"><title>n12-&gt;n13</title><path fill="none" stroke="#000" d="M107,-161.465C107,-153.59 107,-143.788 107,-134.679"/><polygon fill="#000" stroke="#000" points="110.5 -134.461 107 -124.461 103.5 -134.461 110.5 -134.461"/></g><g id="node18" class="node"><title>n11</title><defs><linearGradient id="l_16" x1="58.856" x2="155.144" y1="-260.75" y2="-260.75" gradientUnits="userSpaceOnUse"><stop offset="0" style="stop-color:bisque;stop-opacity:1."/><stop offset="1" style="stop-color:brown;stop-opacity:1."/></linearGradient></defs><polygon fill="url(#l_16)" stroke="#000" points="107 -278 58.856 -243.5 155.144 -243.5 107 -278"/><text x="107" y="-251.3" font-family="Times,serif" font-size="14" text-anchor="middle">n11</text></g><g id="edge13" class="edge"><title>n11-&gt;n12</title><path fill="none" stroke="#000" d="M107,-243.254C107,-233.635 107,-219.114 107,-206.308"/><polygon fill="#000" stroke="#000" points="110.5 -206.101 107 -196.101 103.5 -206.101 110.5 -206.101"/></g><g id="node19" class="node"><title>n10</title><defs><linearGradient id="l_17" x1="80" x2="134" y1="-332" y2="-332" gradientUnits="userSpaceOnUse"><stop offset="0" style="stop-color:bisque;stop-opacity:1."/><stop offset="1" style="stop-color:brown;stop-opacity:1."/></linearGradient></defs><polygon fill="url(#l_17)" stroke="#000" points="134 -350 80 -350 80 -314 134 -314 134 -350"/><text x="107" y="-328.3" font-family="Times,serif" font-size="14" text-anchor="middle">n10</text></g><g id="edge12" class="edge"><title>n10-&gt;n11</title><path fill="none" stroke="#000" d="M107,-313.981C107,-306.34 107,-297.061 107,-288.188"/><polygon fill="#000" stroke="#000" points="110.5 -288.079 107 -278.079 103.5 -288.079 110.5 -288.079"/></g><g id="node20" class="node"><title>n9</title><defs><linearGradient id="l_18" x1="89" x2="125" y1="-404" y2="-404" gradientUnits="userSpaceOnUse"><stop offset="0" style="stop-color:bisque;stop-opacity:1."/><stop offset="1" style="stop-color:brown;stop-opacity:1."/></linearGradient></defs><polygon fill="url(#l_18)" stroke="#000" points="125 -422 89 -422 89 -386 125 -386 125 -422"/><text x="107" y="-400.3" font-family="Times,serif" font-size="14" text-anchor="middle">n9</text></g><g id="edge11" class="edge"><title>n9-&gt;n10</title><path fill="none" stroke="#000" d="M107,-385.697C107,-377.983 107,-368.712 107,-360.112"/><polygon fill="#000" stroke="#000" points="110.5 -360.104 107 -350.104 103.5 -360.104 110.5 -360.104"/></g><g id="node21" class="node"><title>n8</title><defs><linearGradient id="l_19" x1="88.71" x2="127.29" y1="-482" y2="-482" gradientUnits="userSpaceOnUse"><stop offset="0" style="stop-color:bisque;stop-opacity:1."/><stop offset="1" style="stop-color:brown;stop-opacity:1."/></linearGradient></defs><ellipse cx="108" cy="-482" fill="url(#l_19)" stroke="#000" rx="19.29" ry="19.497"/><ellipse cx="108" cy="-482" fill="none" stroke="#000" rx="23.247" ry="23.497"/><text x="108" y="-478.3" font-family="Times,serif" font-size="14" text-anchor="middle">n8</text></g><g id="edge10" class="edge"><title>n8-&gt;n9</title><path fill="none" stroke="#000" d="M107.7,-458.197C107.593,-450.081 107.472,-440.858 107.36,-432.397"/><polygon fill="#000" stroke="#000" points="110.858 -432.181 107.227 -422.228 103.859 -432.273 110.858 -432.181"/></g><g id="node22" class="node"><title>n7</title><defs><linearGradient id="l_20" x1="81" x2="135" y1="-564" y2="-564" gradientUnits="userSpaceOnUse"><stop offset="0" style="stop-color:bisque;stop-opacity:1."/><stop offset="1" style="stop-color:brown;stop-opacity:1."/></linearGradient></defs><polygon fill="url(#l_20)" stroke="#000" points="135 -556.544 135 -571.456 119.184 -582 96.816 -582 81 -571.456 81 -556.544 96.816 -546 119.184 -546 135 -556.544"/><polygon fill="none" stroke="#000" points="139 -554.403 139 -573.597 120.395 -586 95.605 -586 77 -573.597 77 -554.403 95.605 -542 120.395 -542 139 -554.403"/><text x="108" y="-560.3" font-family="Times,serif" font-size="14" text-anchor="middle">n7</text></g><g id="edge9" class="edge"><title>n7-&gt;n8</title><path fill="none" stroke="#000" d="M108,-541.981C108,-533.929 108,-524.54 108,-515.653"/><polygon fill="#000" stroke="#000" points="111.5 -515.561 108 -505.561 104.5 -515.561 111.5 -515.561"/></g><g id="node23" class="node"><title>n6</title><defs><linearGradient id="l_21" x1="85" x2="139" y1="-648" y2="-648" gradientUnits="userSpaceOnUse"><stop offset="0" style="stop-color:bisque;stop-opacity:1."/><stop offset="1" style="stop-color:brown;stop-opacity:1."/></linearGradient></defs><polygon fill="url(#l_21)" stroke="#000" points="139 -640.544 139 -655.456 123.184 -666 100.816 -666 85 -655.456 85 -640.544 100.816 -630 123.184 -630 139 -640.544"/><polygon fill="none" stroke="#000" points="143 -638.403 143 -657.597 124.395 -670 99.605 -670 81 -657.597 81 -638.403 99.605 -626 124.395 -626 143 -638.403"/><polygon fill="none" stroke="#000" points="147 -636.263 147 -659.737 125.606 -674 98.394 -674 77 -659.737 77 -636.263 98.394 -622 125.606 -622 147 -636.263"/><text x="112" y="-644.3" font-family="Times,serif" font-size="14" text-anchor="middle">n6</text></g><g id="edge8" class="edge"><title>n6-&gt;n7</title><path fill="none" stroke="#000" d="M110.778,-621.952C110.38,-613.782 109.932,-604.61 109.515,-596.054"/><polygon fill="#000" stroke="#000" points="113.009 -595.848 109.026 -586.031 106.017 -596.189 113.009 -595.848"/></g><g id="node24" class="node"><title>n5</title><defs><linearGradient id="l_22" x1="88.638" x2="143.361" y1="-734" y2="-734" gradientUnits="userSpaceOnUse"><stop offset="0" style="stop-color:bisque;stop-opacity:1."/><stop offset="1" style="stop-color:brown;stop-opacity:1."/></linearGradient></defs><polygon fill="url(#l_22)" stroke="#000" points="100.02 -716 131.98 -716 143.361 -752 88.638 -752 100.02 -716"/><text x="116" y="-730.3" font-family="Times,serif" font-size="14" text-anchor="middle">n5</text></g><g id="edge7" class="edge"><title>n5-&gt;n6</title><path fill="none" stroke="#000" d="M115.171,-715.595C114.738,-706.491 114.191,-695.006 113.674,-684.149"/><polygon fill="#000" stroke="#000" points="117.164 -683.853 113.192 -674.03 110.172 -684.186 117.164 -683.853"/></g><g id="node25" class="node"><title>n4</title><defs><linearGradient id="l_23" x1="89" x2="143" y1="-810.281" y2="-810.281" gradientUnits="userSpaceOnUse"><stop offset="0" style="stop-color:bisque;stop-opacity:1."/><stop offset="1" style="stop-color:brown;stop-opacity:1."/></linearGradient></defs><polygon fill="url(#l_23)" stroke="#000" points="89 -806.438 116 -794 143 -806.438 142.975 -826.562 89.025 -826.562 89 -806.438"/><text x="116" y="-808.3" font-family="Times,serif" font-size="14" text-anchor="middle">n4</text></g><g id="edge6" class="edge"><title>n4-&gt;n5</title><path fill="none" stroke="#000" d="M116,-793.754C116,-784.523 116,-772.935 116,-762.495"/><polygon fill="#000" stroke="#000" points="119.5 -762.177 116 -752.177 112.5 -762.177 119.5 -762.177"/></g><g id="node26" class="node"><title>n3</title><defs><linearGradient id="l_24" x1="88.638" x2="143.361" y1="-884" y2="-884" gradientUnits="userSpaceOnUse"><stop offset="0" style="stop-color:bisque;stop-opacity:1."/><stop offset="1" style="stop-color:brown;stop-opacity:1."/></linearGradient></defs><polygon fill="url(#l_24)" stroke="#000" points="116 -902 88.638 -884 116 -866 143.361 -884 116 -902"/><polyline fill="none" stroke="#000" points="97.759 -890 97.759 -878"/><polyline fill="none" stroke="#000" points="106.88 -872 125.12 -872"/><polyline fill="none" stroke="#000" points="134.241 -878 134.241 -890"/><polyline fill="none" stroke="#000" points="125.12 -896 106.88 -896"/><text x="116" y="-880.3" font-family="Times,serif" font-size="14" text-anchor="middle">n3</text></g><g id="edge5" class="edge"><title>n3-&gt;n4</title><path fill="none" stroke="#000" d="M116,-865.697C116,-856.99 116,-846.3 116,-836.829"/><polygon fill="#000" stroke="#000" points="119.5 -836.824 116 -826.825 112.5 -836.825 119.5 -836.824"/></g><g id="node27" class="node"><title>n2</title><defs><linearGradient id="l_25" x1="93" x2="129" y1="-956" y2="-956" gradientUnits="userSpaceOnUse"><stop offset="0" style="stop-color:bisque;stop-opacity:1."/><stop offset="1" style="stop-color:brown;stop-opacity:1."/></linearGradient></defs><polygon fill="url(#l_25)" stroke="#000" points="129 -974 93 -974 93 -938 129 -938 129 -974"/><polyline fill="none" stroke="#000" points="105 -974 93 -962"/><polyline fill="none" stroke="#000" points="93 -950 105 -938"/><polyline fill="none" stroke="#000" points="117 -938 129 -950"/><polyline fill="none" stroke="#000" points="129 -962 117 -974"/><text x="111" y="-952.3" font-family="Times,serif" font-size="14" text-anchor="middle">n2</text></g><g id="edge4" class="edge"><title>n2-&gt;n3</title><path fill="none" stroke="#000" d="M112.236,-937.697C112.795,-929.868 113.469,-920.435 114.091,-911.728"/><polygon fill="#000" stroke="#000" points="117.591 -911.846 114.813 -901.622 110.609 -911.347 117.591 -911.846"/></g><g id="node28" class="node"><title>n1</title><defs><linearGradient id="l_26" x1="87.753" x2="126.247" y1="-1033" y2="-1033" gradientUnits="userSpaceOnUse"><stop offset="0" style="stop-color:bisque;stop-opacity:1."/><stop offset="1" style="stop-color:brown;stop-opacity:1."/></linearGradient></defs><ellipse cx="107" cy="-1033" fill="url(#l_26)" stroke="#000" rx="19.247" ry="19.497"/><polyline fill="none" stroke="#000" points="119.567 -1047.62 94.433 -1047.62"/><polyline fill="none" stroke="#000" points="119.567 -1018.38 94.433 -1018.38"/><text x="107" y="-1029.3" font-family="Times,serif" font-size="14" text-anchor="middle">n1</text></g><g id="edge3" class="edge"><title>n1-&gt;n2</title><path fill="none" stroke="#000" d="M107.989,-1013.46C108.461,-1004.6 109.036,-993.834 109.556,-984.084"/><polygon fill="#000" stroke="#000" points="113.053 -984.216 110.091 -974.044 106.063 -983.843 113.053 -984.216"/></g><g id="node29" class="node"><title>x1</title><defs><linearGradient id="l_27" x1="16" x2="70" y1="-1033" y2="-1033" gradientUnits="userSpaceOnUse"><stop offset="0" style="stop-color:bisque;stop-opacity:1."/><stop offset="1" style="stop-color:brown;stop-opacity:1."/></linearGradient></defs><polygon fill="url(#l_27)" stroke="#000" points="64 -1051 16 -1051 16 -1015 70 -1015 70 -1045 64 -1051"/><polyline fill="none" stroke="#000" points="64 -1051 64 -1045"/><polyline fill="none" stroke="#000" points="70 -1045 64 -1045"/><text x="43" y="-1029.3" font-family="Times,serif" font-size="14" text-anchor="middle">x1</text></g><g id="node30" class="node"><title>x2</title><defs><linearGradient id="l_28" x1="16" x2="70" y1="-958" y2="-958" gradientUnits="userSpaceOnUse"><stop offset="0" style="stop-color:bisque;stop-opacity:1."/><stop offset="1" style="stop-color:brown;stop-opacity:1."/></linearGradient></defs><polygon fill="url(#l_28)" stroke="#000" points="70 -974 28 -974 28 -978 16 -978 16 -938 70 -938 70 -974"/><polyline fill="none" stroke="#000" points="16 -974 28 -974"/><text x="43" y="-952.3" font-family="Times,serif" font-size="14" text-anchor="middle">x2</text></g><g id="edge30" class="edge"><title>x1-&gt;x2</title><path fill="none" stroke="#000" d="M43,-1014.98C43,-1005.94 43,-994.597 43,-984.351"/><polygon fill="#000" stroke="#000" points="46.5 -984.211 43 -974.211 39.5 -984.211 46.5 -984.211"/></g><g id="node31" class="node"><title>x3</title><defs><linearGradient id="l_29" x1="16" x2="70" y1="-886" y2="-886" gradientUnits="userSpaceOnUse"><stop offset="0" style="stop-color:bisque;stop-opacity:1."/><stop offset="1" style="stop-color:brown;stop-opacity:1."/></linearGradient></defs><polygon fill="url(#l_29)" stroke="#000" points="70 -902 67 -906 46 -906 43 -902 16 -902 16 -866 70 -866 70 -902"/><text x="43" y="-880.3" font-family="Times,serif" font-size="14" text-anchor="middle">x3</text></g><g id="edge31" class="edge"><title>x2-&gt;x3</title><path fill="none" stroke="#000" d="M43,-937.697C43,-929.983 43,-920.712 43,-912.112"/><polygon fill="#000" stroke="#000" points="46.5 -912.104 43 -902.104 39.5 -912.104 46.5 -912.104"/></g><g id="node32" class="node"><title>x4</title><defs><linearGradient id="l_30" x1="16" x2="70" y1="-812" y2="-812" gradientUnits="userSpaceOnUse"><stop offset="0" style="stop-color:bisque;stop-opacity:1."/><stop offset="1" style="stop-color:brown;stop-opacity:1."/></linearGradient></defs><polygon fill="url(#l_30)" stroke="#000" points="70 -830 20 -830 16 -826 16 -794 66 -794 70 -798 70 -830"/><polyline fill="none" stroke="#000" points="66 -826 16 -826"/><polyline fill="none" stroke="#000" points="66 -826 66 -794"/><polyline fill="none" stroke="#000" points="66 -826 70 -830"/><text x="43" y="-808.3" font-family="Times,serif" font-size="14" text-anchor="middle">x4</text></g><g id="edge32" class="edge"><title>x3-&gt;x4</title><path fill="none" stroke="#000" d="M43,-865.697C43,-857.983 43,-848.712 43,-840.112"/><polygon fill="#000" stroke="#000" points="46.5 -840.104 43 -830.104 39.5 -840.104 46.5 -840.104"/></g><g id="node33" class="node"><title>x5</title><defs><linearGradient id="l_31" x1="12" x2="70" y1="-734" y2="-734" gradientUnits="userSpaceOnUse"><stop offset="0" style="stop-color:bisque;stop-opacity:1."/><stop offset="1" style="stop-color:brown;stop-opacity:1."/></linearGradient></defs><polygon fill="url(#l_31)" stroke="#000" points="70 -752 16 -752 16 -748 12 -748 12 -744 16 -744 16 -724 12 -724 12 -720 16 -720 16 -716 70 -716 70 -752"/><polyline fill="none" stroke="#000" points="16 -748 20 -748 20 -744 16 -744"/><polyline fill="none" stroke="#000" points="16 -724 20 -724 20 -720 16 -720"/><text x="43" y="-730.3" font-family="Times,serif" font-size="14" text-anchor="middle">x5</text></g><g id="edge33" class="edge"><title>x4-&gt;x5</title><path fill="none" stroke="#000" d="M43,-793.754C43,-784.523 43,-772.935 43,-762.495"/><polygon fill="#000" stroke="#000" points="46.5 -762.177 43 -752.177 39.5 -762.177 46.5 -762.177"/></g></g></svg>