<svg xmlns="http://www.w3.org/2000/svg" xmlns:xlink="http://www.w3.org/1999/xlink" width="454pt" height="278pt" viewBox="0 0 454.3 278.44"><g id="graph0" class="graph" transform="scale(1 1) rotate(0) translate(4 274.4386)"><title>G</title><polygon fill="#fff" stroke="transparent" points="-4 4 -4 -274.439 450.304 -274.439 450.304 4 -4 4"/><g id="node1" class="node"><title>a</title><polygon fill="#ff0" stroke="transparent" points="8.5 -42.439 8.5 -63.439 41.5 -63.439 41.5 -42.439 8.5 -42.439"/><polygon fill="none" stroke="#000" points="8.5 -42.439 8.5 -63.439 41.5 -63.439 41.5 -42.439 8.5 -42.439"/><text x="11.5" y="-49.239" fill="#000" font-family="Times,serif" font-size="14" text-anchor="start">class</text><polygon fill="#add8e6" stroke="transparent" points="41.5 -42.439 41.5 -63.439 93.5 -63.439 93.5 -42.439 41.5 -42.439"/><polygon fill="none" stroke="#000" points="41.5 -42.439 41.5 -63.439 93.5 -63.439 93.5 -42.439 41.5 -42.439"/><text x="44.5" y="-49.239" fill="#000" font-family="Times,serif" font-size="14" text-anchor="start">qualifier</text></g><g id="node2" class="node"><title>b</title><g id="a_node2"><a xlink:href="http://www.graphviz.org/content/node-shapes" xlink:title="&lt;TABLE&gt;"><ellipse cx="341.652" cy="-83.439" fill="#d3d3d3" stroke="#000" rx="104.804" ry="83.377"/><g id="a_node2_0"><a xlink:href="http://www.graphviz.org/content/node-shapes#html" xlink:title="&lt;TABLE&gt;"><polygon fill="bisque" stroke="transparent" points="275.652 -28.439 275.652 -138.439 407.652 -138.439 407.652 -28.439 275.652 -28.439"/><g id="a_node2_1"><a xlink:href="http://go/wiki/Elephant" xlink:title="&lt;TABLE&gt;"><polygon fill="bisque" stroke="transparent" points="278.652 -114.439 278.652 -135.439 375.652 -135.439 375.652 -114.439 278.652 -114.439"/><polygon fill="none" stroke="#000" points="278.652 -114.439 278.652 -135.439 375.652 -135.439 375.652 -114.439 278.652 -114.439"/><text x="304.152" y="-121.239" fill="#000" font-family="Times,serif" font-size="14" text-anchor="start">elephant</text></a></g><polygon fill="#7fff00" stroke="transparent" points="377.652 -76.439 377.652 -135.439 404.652 -135.439 404.652 -76.439 377.652 -76.439"/><polygon fill="none" stroke="#000" points="377.652 -76.439 377.652 -135.439 404.652 -135.439 404.652 -76.439 377.652 -76.439"/><text x="380.652" y="-83.239" fill="#000" font-family="Times,serif" font-size="14" text-anchor="start">two</text><polygon fill="none" stroke="#000" points="278.652 -31.439 278.652 -112.439 323.652 -112.439 323.652 -31.439 278.652 -31.439"/><g id="a_node2_2"><a xlink:href="http://go/wiki/Grey" xlink:title="&lt;TABLE&gt;"><polygon fill="silver" stroke="transparent" points="281.652 -34.439 281.652 -109.439 320.652 -109.439 320.652 -34.439 281.652 -34.439"/><g id="a_node2_3"><a xlink:href="http://go/wiki/Sweet_corn" xlink:title="&lt;TABLE&gt;"><polygon fill="none" stroke="#000" points="284.652 -84.439 284.652 -106.439 317.652 -106.439 317.652 -84.439 284.652 -84.439"/><text x="288.652" y="-91.739" fill="#000" font-family="Times,serif" font-size="14" text-anchor="start">corn</text></a></g><polygon fill="#ff0" stroke="transparent" points="284.652 -60.439 284.652 -82.439 317.652 -82.439 317.652 -60.439 284.652 -60.439"/><polygon fill="none" stroke="#000" points="284.652 -60.439 284.652 -82.439 317.652 -82.439 317.652 -60.439 284.652 -60.439"/><text x="297.652" y="-67.739" fill="#000" font-family="Times,serif" font-size="14" text-anchor="start">c</text><g id="a_node2_4"><a xlink:href="http://go/wiki/F" xlink:title="&lt;TABLE&gt;"><polygon fill="none" stroke="#000" points="284.652 -37.439 284.652 -58.439 317.652 -58.439 317.652 -37.439 284.652 -37.439"/><text x="298.652" y="-44.239" fill="#000" font-family="Times,serif" font-size="14" text-anchor="start">f</text></a></g><polygon fill="none" stroke="#000" points="281.652 -34.439 281.652 -109.439 320.652 -109.439 320.652 -34.439 281.652 -34.439"/></a></g><polygon fill="#fff" stroke="transparent" points="325.652 -76.439 325.652 -112.439 375.652 -112.439 375.652 -76.439 325.652 -76.439"/><polygon fill="none" stroke="#000" points="325.652 -76.439 325.652 -112.439 375.652 -112.439 375.652 -76.439 325.652 -76.439"/><text x="328.652" y="-90.739" fill="#000" font-family="Times,serif" font-size="14" text-anchor="start">penguin</text><polygon fill="none" stroke="#000" stroke-width="4" points="327.652 -33.439 327.652 -72.439 402.652 -72.439 402.652 -33.439 327.652 -33.439"/><text x="391.652" y="-49.239" fill="#000" font-family="Times,serif" font-size="14" text-anchor="start">4</text><polygon fill="none" stroke="#000" points="275.652 -28.439 275.652 -138.439 407.652 -138.439 407.652 -28.439 275.652 -28.439"/></a></g></a></g></g><g id="edge1" class="edge"><title>a:here-&gt;b:there</title><path fill="none" stroke="#000" d="M105.6432,-51.6426C173.397,-43.9081 341.2645,16.7659 363.2607,-21.6763"/><polygon fill="#000" stroke="#000" points="105.474 -51.654 99.749 -56.038 93.5 -52.439 99.225 -48.055 105.474 -51.654"/><polygon fill="#000" stroke="#000" points="359.873 -22.558 365.652 -31.439 366.672 -20.893 359.873 -22.558"/></g><g id="node3" class="node"><title>c</title><text x="312.152" y="-239.739" fill="#000" font-family="Times,serif" font-size="14" text-anchor="start">long line 1</text><text x="312.152" y="-224.739" fill="#000" font-family="Times,serif" font-size="14" text-anchor="start">line 2</text><text x="340.152" y="-209.739" fill="#000" font-family="Times,serif" font-size="14" text-anchor="start">line 3</text></g><g id="edge2" class="edge"><title>c-&gt;b</title><path fill="none" stroke="#000" d="M341.6518,-201.552C341.6518,-193.45 341.6518,-185.348 341.6518,-177.246"/><polygon fill="#000" stroke="#000" points="345.152 -176.983 341.652 -166.983 338.152 -176.984 345.152 -176.983"/></g><g id="node4" class="node"><title>d</title><polygon fill="none" stroke="#000" points="50.5 -251.439 20.705 -216.939 80.295 -216.939 50.5 -251.439"/><text x="50.5" y="-224.739" fill="#000" font-family="Times,serif" font-size="14" text-anchor="middle">d</text></g><g id="edge3" class="edge"><title>d-&gt;c</title><path fill="none" stroke="#000" d="M70.512,-228.4386C116.1497,-228.4386 228.9754,-228.4386 293.7913,-228.4386"/><polygon fill="#000" stroke="#000" points="294.15 -231.939 304.15 -228.439 294.15 -224.939 294.15 -231.939"/><polygon fill="red" stroke="transparent" points="122 -231.439 122 -267.439 132 -267.439 132 -231.439 122 -231.439"/><polygon fill="none" stroke="#000" points="122 -231.439 122 -267.439 132 -267.439 132 -231.439 122 -231.439"/><polygon fill="none" stroke="#000" points="134 -231.439 134 -267.439 204 -267.439 204 -231.439 134 -231.439"/><text x="137" y="-253.239" fill="#000" font-family="Times,serif" font-size="14" text-anchor="start">Edge labels</text><text x="158" y="-238.239" fill="#000" font-family="Times,serif" font-size="14" text-anchor="start">also</text><polygon fill="#00f" stroke="transparent" points="206 -231.439 206 -267.439 216 -267.439 216 -231.439 206 -231.439"/><polygon fill="none" stroke="#000" points="206 -231.439 206 -267.439 216 -267.439 216 -231.439 206 -231.439"/><polygon fill="none" stroke="#000" points="119 -228.439 119 -270.439 219 -270.439 219 -228.439 119 -228.439"/></g></g></svg>