<?xml-stylesheet href="stylesheet" type="text/css"?><svg xmlns="http://www.w3.org/2000/svg" xmlns:xlink="http://www.w3.org/1999/xlink" width="509pt" height="256" viewBox="0 0 509.23 192"><g id="graph1" class="graph" transform="scale(1 1) rotate(0) translate(4 188)"><title>G</title><a xlink:href="http://www.graphviz.org/doc/info/output.html" xlink:title="output"><polygon fill="#fff" stroke="#fff" points="-4 5 -4 -188 506.226 -188 506.226 5 -4 5"/><text x="250.613" y="-7.8" font-family="Times,serif" font-size="14" text-anchor="middle">output</text></a><g id="graph2" class="cluster"><title>cluster0</title><a xlink:href="http://www.graphviz.org/doc/info/arrows.html" xlink:title="arrows"><polygon fill="#ff0" stroke="#000" points="100 -31 100 -106 289 -106 289 -31 100 -31"/><text x="194.5" y="-90.8" font-family="Times,serif" font-size="14" text-anchor="middle">arrows</text></a></g><g id="node1" class="node"><title>lang</title><a xlink:href="http://www.graphviz.org/doc/info/lang.html" xlink:title="lang"><ellipse cx="234" cy="-166" fill="none" stroke="#000" rx="27" ry="18"/><text x="234" y="-162.3" font-family="Times,serif" font-size="14" text-anchor="middle">lang</text></a></g><g id="node2" class="node"><title>colors</title><a xlink:href="http://www.graphviz.org/doc/info/output.html" xlink:title="&lt;TABLE&gt;"><ellipse cx="45" cy="-57" fill="#add8e6" stroke="#000" rx="44.884" ry="25"/></a><a xlink:href="http://www.graphviz.org/doc/info/colors.html" xlink:title="&lt;TABLE&gt;"><polygon fill="none" stroke="#000" points="21 -43.5 21 -70.5 69 -70.5 69 -43.5 21 -43.5"/><polygon fill="green" stroke="green" points="24 -46 24 -67 66 -67 66 -46 24 -46"/><polygon fill="none" stroke="#000" points="24 -46 24 -67 66 -67 66 -46 24 -46"/><text x="27.5" y="-53.3" font-family="Times,serif" font-size="14" text-anchor="start">colors</text></a></g><g id="edge5" class="edge"><title>lang-&gt;colors</title><a xlink:href="lang-&gt;colors" xlink:title="self"><path fill="none" stroke="#000" d="M210.038,-157.628C181.47,-148.21 132.953,-130.187 96,-106 87.6323,-100.523 79.377,-93.6105 72.0255,-86.7504"/><polygon fill="#000" stroke="#000" points="74.057 -83.845 64.441 -79.397 69.184 -88.871 74.057 -83.845"/></a></g><g id="node4" class="node"><title>command</title><a xlink:href="http://www.graphviz.org/doc/info/command.html" xlink:title="command"><ellipse cx="234" cy="-57" fill="gray" stroke="#000" rx="46.196" ry="18"/><text x="234" y="-53.3" font-family="Times,serif" font-size="14" text-anchor="middle">command</text></a></g><g id="edge3" class="edge"><title>lang-&gt;command</title><a xlink:href="http://www.graphviz.org/doc/info/shapes.html"><path fill="none" stroke="#000" d="M234,-147.809C234,-130.961 234,-105.018 234,-85.3394"/><polygon fill="#000" stroke="#000" points="237.5 -85.149 234 -75.149 230.5 -85.149 237.5 -85.149"/></a></g><g id="node9" class="node"><title>size</title><ellipse cx="326" cy="-57" fill="none" stroke="#000" rx="27" ry="18"/><text x="326" y="-53.3" font-family="Times,serif" font-size="14" text-anchor="middle">size</text></g><g id="edge7" class="edge"><title>lang-&gt;size</title><a xlink:href="headurl" xlink:title="headurl"><path fill="none" stroke="#000" d="M249.322,-151.158C261.713,-139.626 279.29,-122.482 293,-106 299.108,-98.6566 305.202,-90.1978 310.459,-82.4463"/><polygon fill="#000" stroke="#000" points="313.389 -84.361 315.997 -74.092 307.554 -80.494 313.389 -84.361"/></a><a xlink:href="headsize" xlink:title="size"><text x="314.512" y="-80.281" font-family="Times,serif" font-size="14" text-anchor="middle">size</text></a></g><g id="node5" class="node"><title>name</title><a xlink:href="G name" xlink:title="name"><ellipse cx="139" cy="-57" fill="none" stroke="#000" rx="30.321" ry="18"/><text x="139" y="-53.3" font-family="Times,serif" font-size="14" text-anchor="middle">name</text></a></g><g id="node10" class="node"><title>word</title><ellipse cx="377" cy="-166" fill="none" stroke="#000" rx="29.372" ry="18"/><text x="377" y="-162.3" font-family="Times,serif" font-size="14" text-anchor="middle">word</text></g><g id="edge9" class="edge"><title>word-&gt;size</title><a xlink:href="tailurl"><path fill="none" stroke="#000" d="M369.031,-148.281C360.749,-130.905 347.685,-103.497 338.123,-83.4338"/><polygon fill="#000" stroke="#000" points="341.208 -81.772 333.746 -74.251 334.889 -84.784 341.208 -81.772"/></a><a xlink:href="tailsize" xlink:title="size"><text x="361.317" y="-138.218" font-family="Times,serif" font-size="14" text-anchor="middle">size</text></a></g><g id="node13" class="node"><title>garf</title><ellipse cx="398" cy="-57" fill="none" stroke="#000" rx="27" ry="18"/><text x="398" y="-53.3" font-family="Times,serif" font-size="14" text-anchor="middle">garf</text></g><g id="edge11" class="edge"><title>word-&gt;garf</title><a xlink:href="labelurl" xlink:title="garf"><path fill="none" stroke="#000" d="M380.374,-147.809C383.696,-130.883 388.819,-104.778 392.688,-85.0665"/><polygon fill="#000" stroke="#000" points="396.143 -85.636 394.634 -75.149 389.274 -84.287 396.143 -85.636"/></a><a xlink:href="garf" xlink:title="garf"><text x="397.5" y="-118.3" font-family="Times,serif" font-size="14" text-anchor="middle">garf</text></a></g><g id="node14" class="node"><title>line</title><ellipse cx="470" cy="-166" fill="none" stroke="#000" rx="27" ry="18"/><text x="470" y="-162.3" font-family="Times,serif" font-size="14" text-anchor="middle">line</text></g><g id="node16" class="node"><title>all</title><ellipse cx="470" cy="-57" fill="none" stroke="#000" rx="27" ry="18"/><text x="470" y="-53.3" font-family="Times,serif" font-size="14" text-anchor="middle">all</text></g><g id="edge13" class="edge"><title>line-&gt;all</title><a xlink:href="labelurl" xlink:title="edgetooltip"><path fill="none" stroke="#000" d="M470,-147.809C470,-130.961 470,-105.018 470,-85.3394"/><polygon fill="#000" stroke="#000" points="473.5 -85.149 470 -75.149 466.5 -85.149 473.5 -85.149"/></a><a xlink:href="garf" xlink:title="garf"><text x="481.5" y="-118.3" font-family="Times,serif" font-size="14" text-anchor="middle">garf</text></a><a xlink:href="headURL" xlink:title="headtooltip"><text x="474.226" y="-80.512" font-family="Times,serif" font-size="14" text-anchor="middle">headlabel</text></a><a xlink:href="tailURL" xlink:title="tailtooltip"><text x="465.774" y="-135.046" font-family="Times,serif" font-size="14" text-anchor="middle">taillabel</text></a></g></g></svg>