<svg xmlns="http://www.w3.org/2000/svg" xmlns:xlink="http://www.w3.org/1999/xlink" width="2248pt" height="476pt" viewBox="0 0 2248.47 476"><g id="graph0" class="graph" transform="scale(1 1) rotate(0) translate(4 472)"><title>%3</title><polygon fill="#fff" stroke="transparent" points="-4 4 -4 -472 2244.467 -472 2244.467 4 -4 4"/><g id="node1" class="node"><title>compiler_stub</title><ellipse cx="1913.087" cy="-90" fill="#fff" stroke="#000" rx="66.072" ry="18"/><text x="1913.087" y="-85.8" fill="#000" font-family="Times,serif" font-size="14" text-anchor="middle">compiler_stub</text></g><g id="node3" class="node"><title>data</title><ellipse cx="1438.087" cy="-18" fill="#fff" stroke="#000" rx="27.245" ry="18"/><text x="1438.087" y="-13.8" fill="#000" font-family="Times,serif" font-size="14" text-anchor="middle">data</text></g><g id="edge1" class="edge"><title>compiler_stub-&gt;data</title><path fill="none" stroke="#000" d="M1854.8426,-81.1714C1755.6391,-66.1342 1556.6778,-35.9759 1474.689,-23.5481"/><polygon fill="#000" stroke="#000" points="1475.012 -20.057 1464.6 -22.019 1473.963 -26.978 1475.012 -20.057"/></g><g id="node2" class="node"><title>core</title><ellipse cx="538.087" cy="-162" fill="#fff" stroke="#000" rx="27.807" ry="18"/><text x="538.087" y="-157.8" fill="#000" font-family="Times,serif" font-size="14" text-anchor="middle">core</text></g><g id="node12" class="node"><title>iface</title><ellipse cx="463.087" cy="-90" fill="#fff" stroke="#000" rx="29.592" ry="18"/><text x="463.087" y="-85.8" fill="#000" font-family="Times,serif" font-size="14" text-anchor="middle">iface</text></g><g id="edge2" class="edge"><title>core-&gt;iface</title><path fill="none" stroke="#000" d="M522.5469,-147.0816C512.1287,-137.0801 498.2191,-123.7269 486.4728,-112.4504"/><polygon fill="#000" stroke="#000" points="488.762 -109.797 479.125 -105.396 483.915 -114.846 488.762 -109.797"/></g><g id="node4" class="node"><title>defaults</title><ellipse cx="791.087" cy="-378" fill="#fff" stroke="#000" rx="41.709" ry="18"/><text x="791.087" y="-373.8" fill="#000" font-family="Times,serif" font-size="14" text-anchor="middle">defaults</text></g><g id="node7" class="node"><title>engine/gcc</title><ellipse cx="1122.087" cy="-306" fill="#fff" stroke="#000" rx="52.73" ry="18"/><text x="1122.087" y="-301.8" fill="#000" font-family="Times,serif" font-size="14" text-anchor="middle">engine/gcc</text></g><g id="edge3" class="edge"><title>defaults-&gt;engine/gcc</title><path fill="none" stroke="#000" d="M826.7295,-368.4562C838.0007,-365.5749 850.5307,-362.5124 862.0869,-360 949.488,-340.9988 973.0242,-344.4958 1060.0869,-324 1064.1987,-323.032 1068.4435,-321.959 1072.6931,-320.8327"/><polygon fill="#000" stroke="#000" points="1073.836 -324.149 1082.557 -318.133 1071.988 -317.397 1073.836 -324.149"/></g><g id="node8" class="node"><title>engine/null</title><ellipse cx="579.087" cy="-234" fill="#fff" stroke="#000" rx="54.474" ry="18"/><text x="579.087" y="-229.8" fill="#000" font-family="Times,serif" font-size="14" text-anchor="middle">engine/null</text></g><g id="edge4" class="edge"><title>defaults-&gt;engine/null</title><path fill="none" stroke="#000" d="M753.8695,-369.7691C700.8749,-357.7251 608.8535,-335.4874 598.0869,-324 582.6992,-307.582 578.4946,-281.9713 577.8242,-262.2615"/><polygon fill="#000" stroke="#000" points="581.323 -261.995 577.767 -252.014 574.323 -262.034 581.323 -261.995"/></g><g id="node9" class="node"><title>engine/templight</title><ellipse cx="683.087" cy="-306" fill="#fff" stroke="#000" rx="76.463" ry="18"/><text x="683.087" y="-301.8" fill="#000" font-family="Times,serif" font-size="14" text-anchor="middle">engine/templight</text></g><g id="edge5" class="edge"><title>defaults-&gt;engine/templight</title><path fill="none" stroke="#000" d="M768.1829,-362.7307C753.3137,-352.8178 733.6728,-339.7239 717.0072,-328.6135"/><polygon fill="#000" stroke="#000" points="718.866 -325.647 708.605 -323.012 714.984 -331.471 718.866 -325.647"/></g><g id="node10" class="node"><title>engine/vc</title><ellipse cx="1244.087" cy="-234" fill="#fff" stroke="#000" rx="48.656" ry="18"/><text x="1244.087" y="-229.8" fill="#000" font-family="Times,serif" font-size="14" text-anchor="middle">engine/vc</text></g><g id="edge6" class="edge"><title>defaults-&gt;engine/vc</title><path fill="none" stroke="#000" d="M825.8674,-367.9256C837.3163,-364.9476 850.1669,-361.9628 862.0869,-360 912.6732,-351.6705 1287.2784,-361.6392 1322.0869,-324 1332.9503,-312.2532 1329.5127,-302.1725 1322.0869,-288 1314.111,-272.7773 1299.6786,-260.9928 1285.3781,-252.3727"/><polygon fill="#000" stroke="#000" points="1286.982 -249.26 1276.55 -247.412 1283.553 -255.362 1286.982 -249.26"/></g><g id="node11" class="node"><title>engine/wave</title><ellipse cx="837.087" cy="-306" fill="#fff" stroke="#000" rx="59.672" ry="18"/><text x="837.087" y="-301.8" fill="#000" font-family="Times,serif" font-size="14" text-anchor="middle">engine/wave</text></g><g id="edge7" class="edge"><title>defaults-&gt;engine/wave</title><path fill="none" stroke="#000" d="M802.2223,-360.5708C807.6224,-352.1184 814.2242,-341.7851 820.2247,-332.3931"/><polygon fill="#000" stroke="#000" points="823.3 -334.08 825.735 -323.769 817.401 -330.312 823.3 -334.08"/></g><g id="node17" class="node"><title>pragma</title><ellipse cx="511.087" cy="-306" fill="#fff" stroke="#000" rx="39.988" ry="18"/><text x="511.087" y="-301.8" fill="#000" font-family="Times,serif" font-size="14" text-anchor="middle">pragma</text></g><g id="edge8" class="edge"><title>defaults-&gt;pragma</title><path fill="none" stroke="#000" d="M753.6362,-370.1012C708.595,-360.3605 630.8362,-342.7746 565.0869,-324 561.0247,-322.84 556.8133,-321.5655 552.6159,-320.2471"/><polygon fill="#000" stroke="#000" points="553.515 -316.86 542.924 -317.124 551.369 -323.522 553.515 -316.86"/></g><g id="node5" class="node"><title>engine/clang</title><ellipse cx="910.087" cy="-234" fill="#fff" stroke="#000" rx="60.254" ry="18"/><text x="910.087" y="-229.8" fill="#000" font-family="Times,serif" font-size="14" text-anchor="middle">engine/clang</text></g><g id="edge9" class="edge"><title>engine/clang-&gt;core</title><path fill="none" stroke="#000" d="M859.1419,-224.1397C783.0223,-209.4068 641.4283,-182.0016 574.6881,-169.0841"/><polygon fill="#000" stroke="#000" points="575.124 -165.603 564.641 -167.139 573.794 -172.476 575.124 -165.603"/></g><g id="node18" class="node"><title>process</title><ellipse cx="1402.087" cy="-162" fill="#fff" stroke="#000" rx="39.986" ry="18"/><text x="1402.087" y="-157.8" fill="#000" font-family="Times,serif" font-size="14" text-anchor="middle">process</text></g><g id="edge10" class="edge"><title>engine/clang-&gt;process</title><path fill="none" stroke="#000" d="M964.6194,-226.0196C1061.3437,-211.8649 1261.4188,-182.5856 1353.6217,-169.0925"/><polygon fill="#000" stroke="#000" points="1354.402 -172.516 1363.789 -167.605 1353.388 -165.589 1354.402 -172.516"/></g><g id="node6" class="node"><title>engine/constant</title><ellipse cx="174.087" cy="-306" fill="#fff" stroke="#000" rx="71.789" ry="18"/><text x="174.087" y="-301.8" fill="#000" font-family="Times,serif" font-size="14" text-anchor="middle">engine/constant</text></g><g id="edge11" class="edge"><title>engine/constant-&gt;core</title><path fill="none" stroke="#000" d="M212.6967,-290.7258C284.5461,-262.3019 437.5906,-201.7568 505.0174,-175.0824"/><polygon fill="#000" stroke="#000" points="506.313 -178.334 514.325 -171.4 503.738 -171.825 506.313 -178.334"/></g><g id="edge12" class="edge"><title>engine/gcc-&gt;engine/clang</title><path fill="none" stroke="#000" d="M1084.1856,-293.1278C1049.5282,-281.3574 998.028,-263.8668 960.0254,-250.9602"/><polygon fill="#000" stroke="#000" points="960.777 -247.519 950.183 -247.617 958.526 -254.147 960.777 -247.519"/></g><g id="edge13" class="edge"><title>engine/null-&gt;core</title><path fill="none" stroke="#000" d="M568.9521,-216.2022C564.1146,-207.7071 558.232,-197.3767 552.9052,-188.0223"/><polygon fill="#000" stroke="#000" points="555.813 -186.055 547.823 -179.097 549.73 -189.519 555.813 -186.055"/></g><g id="edge14" class="edge"><title>engine/templight-&gt;engine/clang</title><path fill="none" stroke="#000" d="M728.7507,-291.5163C766.4664,-279.5536 819.9673,-262.5842 859.0812,-250.178"/><polygon fill="#000" stroke="#000" points="860.223 -253.488 868.697 -247.128 858.107 -246.815 860.223 -253.488"/></g><g id="edge15" class="edge"><title>engine/vc-&gt;core</title><path fill="none" stroke="#000" d="M1197.2176,-229.2201C1065.6795,-215.8055 694.919,-177.9942 575.5894,-165.8246"/><polygon fill="#000" stroke="#000" points="575.789 -162.327 565.486 -164.794 575.079 -169.291 575.789 -162.327"/></g><g id="edge16" class="edge"><title>engine/vc-&gt;process</title><path fill="none" stroke="#000" d="M1274.926,-219.9468C1300.6331,-208.2321 1337.3425,-191.5038 1364.7165,-179.0296"/><polygon fill="#000" stroke="#000" points="1366.328 -182.142 1373.976 -174.81 1363.425 -175.772 1366.328 -182.142"/></g><g id="edge17" class="edge"><title>engine/wave-&gt;engine/clang</title><path fill="none" stroke="#000" d="M854.7582,-288.5708C863.9043,-279.55 875.2224,-268.387 885.2344,-258.5121"/><polygon fill="#000" stroke="#000" points="887.917 -260.783 892.578 -251.269 883.001 -255.799 887.917 -260.783"/></g><g id="edge18" class="edge"><title>iface-&gt;data</title><path fill="none" stroke="#000" d="M492.7991,-87.8059C634.7483,-77.3235 1243.4423,-32.3738 1400.8246,-20.7517"/><polygon fill="#000" stroke="#000" points="1401.232 -24.231 1410.947 -20.004 1400.717 -17.25 1401.232 -24.231"/></g><g id="node13" class="node"><title>main_shell</title><ellipse cx="400.087" cy="-306" fill="#fff" stroke="#000" rx="53.328" ry="18"/><text x="400.087" y="-301.8" fill="#000" font-family="Times,serif" font-size="14" text-anchor="middle">main_shell</text></g><g id="edge19" class="edge"><title>main_shell-&gt;core</title><path fill="none" stroke="#000" d="M427.6353,-290.5056C443.5062,-280.7481 463.1957,-267.1548 478.0869,-252 496.863,-232.8917 513.3448,-207.1321 524.2588,-188.0677"/><polygon fill="#000" stroke="#000" points="527.332 -189.742 529.155 -179.305 521.222 -186.327 527.332 -189.742"/></g><g id="node14" class="node"><title>mdb</title><ellipse cx="441.087" cy="-234" fill="#fff" stroke="#000" rx="28.413" ry="18"/><text x="441.087" y="-229.8" fill="#000" font-family="Times,serif" font-size="14" text-anchor="middle">mdb</text></g><g id="edge20" class="edge"><title>mdb-&gt;core</title><path fill="none" stroke="#000" d="M459.7895,-220.1177C474.5101,-209.191 495.2102,-193.8261 511.6292,-181.6387"/><polygon fill="#000" stroke="#000" points="513.827 -184.366 519.771 -175.595 509.655 -178.745 513.827 -184.366"/></g><g id="node15" class="node"><title>mock</title><ellipse cx="296.087" cy="-306" fill="#fff" stroke="#000" rx="32.485" ry="18"/><text x="296.087" y="-301.8" fill="#000" font-family="Times,serif" font-size="14" text-anchor="middle">mock</text></g><g id="edge21" class="edge"><title>mock-&gt;iface</title><path fill="none" stroke="#000" d="M308.9139,-289.4095C338.189,-251.5446 410.0369,-158.6156 444.3083,-114.2885"/><polygon fill="#000" stroke="#000" points="447.097 -116.403 450.445 -106.351 441.559 -112.122 447.097 -116.403"/></g><g id="node16" class="node"><title>pattern</title><ellipse cx="1598.087" cy="-162" fill="#fff" stroke="#000" rx="37.699" ry="18"/><text x="1598.087" y="-157.8" fill="#000" font-family="Times,serif" font-size="14" text-anchor="middle">pattern</text></g><g id="edge22" class="edge"><title>pragma-&gt;mdb</title><path fill="none" stroke="#000" d="M494.8516,-289.3008C485.4916,-279.6734 473.5897,-267.4314 463.3646,-256.9142"/><polygon fill="#000" stroke="#000" points="465.756 -254.353 456.276 -249.623 460.737 -259.233 465.756 -254.353"/></g><g id="edge23" class="edge"><title>process-&gt;data</title><path fill="none" stroke="#000" d="M1405.3637,-143.9501C1408.803,-125.6925 1414.6041,-96.7149 1421.0869,-72 1423.3562,-63.3486 1426.1603,-54.0245 1428.8322,-45.5991"/><polygon fill="#000" stroke="#000" points="1432.231 -46.465 1431.981 -35.873 1425.571 -44.309 1432.231 -46.465"/></g><g id="node19" class="node"><title>readline</title><ellipse cx="98.087" cy="-234" fill="#fff" stroke="#000" rx="42.272" ry="18"/><text x="98.087" y="-229.8" fill="#000" font-family="Times,serif" font-size="14" text-anchor="middle">readline</text></g><g id="edge24" class="edge"><title>readline-&gt;iface</title><path fill="none" stroke="#000" d="M125.7,-220.1329C163.4076,-201.4871 233.3812,-167.9169 295.0869,-144 339.5456,-126.768 392.041,-110.5296 426.3688,-100.4458"/><polygon fill="#000" stroke="#000" points="427.357 -103.803 435.978 -97.644 425.398 -97.083 427.357 -103.803"/></g><g id="node20" class="node"><title>replace_part</title><ellipse cx="930.087" cy="-378" fill="#fff" stroke="#000" rx="58.506" ry="18"/><text x="930.087" y="-373.8" fill="#000" font-family="Times,serif" font-size="14" text-anchor="middle">replace_part</text></g><g id="node21" class="node"><title>system_test</title><ellipse cx="1698.087" cy="-234" fill="#fff" stroke="#000" rx="56.194" ry="18"/><text x="1698.087" y="-229.8" fill="#000" font-family="Times,serif" font-size="14" text-anchor="middle">system_test</text></g><g id="edge25" class="edge"><title>system_test-&gt;pattern</title><path fill="none" stroke="#000" d="M1674.8936,-217.3008C1660.81,-207.1606 1642.6979,-194.1199 1627.5994,-183.249"/><polygon fill="#000" stroke="#000" points="1629.272 -180.14 1619.111 -177.137 1625.181 -185.821 1629.272 -180.14"/></g><g id="edge26" class="edge"><title>system_test-&gt;process</title><path fill="none" stroke="#000" d="M1655.8458,-222.0353C1648.2818,-219.9691 1640.4617,-217.8823 1633.0869,-216 1569.1406,-199.6788 1494.7404,-182.6323 1448.0282,-172.1633"/><polygon fill="#000" stroke="#000" points="1448.731 -168.734 1438.208 -169.968 1447.203 -175.565 1448.731 -168.734"/></g><g id="node22" class="node"><title>app/config_tester</title><polygon fill="none" stroke="#000" points="1754.774 -324 1641.4 -324 1641.4 -288 1754.774 -288 1754.774 -324"/><text x="1698.087" y="-301.8" fill="#000" font-family="Times,serif" font-size="14" text-anchor="middle">app/config_tester</text></g><g id="edge27" class="edge"><title>app/config_tester-&gt;system_test</title><path fill="none" stroke="#000" d="M1698.0869,-287.8314C1698.0869,-280.131 1698.0869,-270.9743 1698.0869,-262.4166"/><polygon fill="#000" stroke="#000" points="1701.587 -262.413 1698.087 -252.413 1694.587 -262.413 1701.587 -262.413"/></g><g id="node23" class="node"><title>app/metashell</title><polygon fill="none" stroke="#000" points="726.843 -468 633.331 -468 633.331 -432 726.843 -432 726.843 -468"/><text x="680.087" y="-445.8" fill="#000" font-family="Times,serif" font-size="14" text-anchor="middle">app/metashell</text></g><g id="edge28" class="edge"><title>app/metashell-&gt;defaults</title><path fill="none" stroke="#000" d="M708.0969,-431.8314C723.7034,-421.7082 743.1898,-409.0684 759.3577,-398.5811"/><polygon fill="#000" stroke="#000" points="761.468 -401.384 767.953 -393.006 757.659 -395.512 761.468 -401.384"/></g><g id="edge29" class="edge"><title>app/metashell-&gt;main_shell</title><path fill="none" stroke="#000" d="M685.0094,-431.9949C689.3249,-411.8474 692.5038,-379.4843 675.0869,-360 643.0945,-324.21 508.8816,-334.7098 462.0869,-324 457.9693,-323.0576 453.7203,-322.0026 449.4678,-320.8885"/><polygon fill="#000" stroke="#000" points="450.167 -317.452 439.599 -318.207 448.332 -324.207 450.167 -317.452"/></g><g id="edge30" class="edge"><title>app/metashell-&gt;readline</title><path fill="none" stroke="#000" d="M633.3004,-447.9375C485.0391,-441.1783 34.1321,-418.8179 13.0869,-396 -25.9138,-353.7141 32.8166,-290.1742 70.5122,-256.6201"/><polygon fill="#000" stroke="#000" points="72.949 -259.139 78.194 -249.934 68.353 -253.859 72.949 -259.139"/></g><g id="node24" class="node"><title>app/reference_gen</title><polygon fill="none" stroke="#000" points="864.962 -468 745.212 -468 745.212 -432 864.962 -432 864.962 -468"/><text x="805.087" y="-445.8" fill="#000" font-family="Times,serif" font-size="14" text-anchor="middle">app/reference_gen</text></g><g id="edge31" class="edge"><title>app/reference_gen-&gt;defaults</title><path fill="none" stroke="#000" d="M801.5542,-431.8314C800.0569,-424.131 798.2764,-414.9743 796.6124,-406.4166"/><polygon fill="#000" stroke="#000" points="800.012 -405.561 794.667 -396.413 793.14 -406.897 800.012 -405.561"/></g><g id="edge32" class="edge"><title>app/reference_gen-&gt;replace_part</title><path fill="none" stroke="#000" d="M836.6297,-431.8314C853.8746,-421.8983 875.3262,-409.5422 893.3264,-399.1741"/><polygon fill="#000" stroke="#000" points="895.466 -401.981 902.384 -393.957 891.972 -395.915 895.466 -401.981"/></g><g id="node25" class="node"><title>app/stub/apple_clang</title><polygon fill="none" stroke="#000" points="1788.557 -180 1653.616 -180 1653.616 -144 1788.557 -144 1788.557 -180"/><text x="1721.087" y="-157.8" fill="#000" font-family="Times,serif" font-size="14" text-anchor="middle">app/stub/apple_clang</text></g><g id="edge33" class="edge"><title>app/stub/apple_clang-&gt;compiler_stub</title><path fill="none" stroke="#000" d="M1769.5367,-143.8314C1798.5808,-132.9398 1835.3935,-119.135 1864.4678,-108.2322"/><polygon fill="#000" stroke="#000" points="1865.874 -111.443 1874.009 -104.654 1863.416 -104.888 1865.874 -111.443"/></g><g id="node26" class="node"><title>app/stub/cl_de</title><polygon fill="none" stroke="#000" points="1903.738 -180 1806.436 -180 1806.436 -144 1903.738 -144 1903.738 -180"/><text x="1855.087" y="-157.8" fill="#000" font-family="Times,serif" font-size="14" text-anchor="middle">app/stub/cl_de</text></g><g id="edge34" class="edge"><title>app/stub/cl_de-&gt;compiler_stub</title><path fill="none" stroke="#000" d="M1869.7228,-143.8314C1876.575,-135.3251 1884.8587,-125.0419 1892.3423,-115.752"/><polygon fill="#000" stroke="#000" points="1895.109 -117.897 1898.657 -107.913 1889.658 -113.505 1895.109 -117.897"/></g><g id="node27" class="node"><title>app/stub/cl_en</title><polygon fill="none" stroke="#000" points="2019.738 -180 1922.436 -180 1922.436 -144 2019.738 -144 2019.738 -180"/><text x="1971.087" y="-157.8" fill="#000" font-family="Times,serif" font-size="14" text-anchor="middle">app/stub/cl_en</text></g><g id="edge35" class="edge"><title>app/stub/cl_en-&gt;compiler_stub</title><path fill="none" stroke="#000" d="M1956.4511,-143.8314C1949.5988,-135.3251 1941.3152,-125.0419 1933.8316,-115.752"/><polygon fill="#000" stroke="#000" points="1936.516 -113.505 1927.517 -107.913 1931.065 -117.897 1936.516 -113.505"/></g><g id="node28" class="node"><title>app/stub/clang</title><polygon fill="none" stroke="#000" points="2135.738 -180 2038.436 -180 2038.436 -144 2135.738 -144 2135.738 -180"/><text x="2087.087" y="-157.8" fill="#000" font-family="Times,serif" font-size="14" text-anchor="middle">app/stub/clang</text></g><g id="edge36" class="edge"><title>app/stub/clang-&gt;compiler_stub</title><path fill="none" stroke="#000" d="M2043.1794,-143.8314C2017.4457,-133.1829 1984.9825,-119.7499 1958.9228,-108.9666"/><polygon fill="#000" stroke="#000" points="1960.214 -105.713 1949.636 -105.124 1957.538 -112.181 1960.214 -105.713"/></g><g id="node29" class="node"><title>app/stub/gcc</title><polygon fill="none" stroke="#000" points="2240.347 -180 2153.826 -180 2153.826 -144 2240.347 -144 2240.347 -180"/><text x="2197.087" y="-157.8" fill="#000" font-family="Times,serif" font-size="14" text-anchor="middle">app/stub/gcc</text></g><g id="edge37" class="edge"><title>app/stub/gcc-&gt;compiler_stub</title><path fill="none" stroke="#000" d="M2153.7838,-146.631C2150.8512,-145.7074 2147.9324,-144.8212 2145.0869,-144 2088.6364,-127.7084 2023.3869,-112.8676 1976.4919,-102.8852"/><polygon fill="#000" stroke="#000" points="1976.984 -99.412 1966.476 -100.768 1975.536 -106.261 1976.984 -99.412"/></g><g id="node30" class="node"><title>test/system/auto_engine</title><polygon fill="none" stroke="#000" points="1624.119 -252 1474.055 -252 1474.055 -216 1624.119 -216 1624.119 -252"/><text x="1549.087" y="-229.8" fill="#000" font-family="Times,serif" font-size="14" text-anchor="middle">test/system/auto_engine</text></g><g id="edge38" class="edge"><title>test/system/auto_engine-&gt;process</title><path fill="none" stroke="#000" d="M1511.9926,-215.8314C1489.5172,-204.823 1460.9656,-190.8385 1438.5967,-179.8823"/><polygon fill="#000" stroke="#000" points="1439.944 -176.645 1429.424 -175.39 1436.865 -182.932 1439.944 -176.645"/></g><g id="node31" class="node"><title>test/system/core</title><polygon fill="none" stroke="#000" points="1475.284 -324 1368.89 -324 1368.89 -288 1475.284 -288 1475.284 -324"/><text x="1422.087" y="-301.8" fill="#000" font-family="Times,serif" font-size="14" text-anchor="middle">test/system/core</text></g><g id="edge39" class="edge"><title>test/system/core-&gt;core</title><path fill="none" stroke="#000" d="M1391.9891,-287.9662C1376.0875,-278.0005 1356.516,-265.0258 1340.0869,-252 1321.857,-237.5464 1323.3816,-225.3687 1302.0869,-216 1235.2958,-186.6148 721.338,-167.9204 576.1644,-163.1877"/><polygon fill="#000" stroke="#000" points="576.079 -159.683 565.971 -162.859 575.853 -166.68 576.079 -159.683"/></g><g id="edge40" class="edge"><title>test/system/core-&gt;system_test</title><path fill="none" stroke="#000" d="M1475.4782,-290.3322C1478.3868,-289.5309 1481.2706,-288.7486 1484.0869,-288 1549.9282,-270.4981 1567.1385,-269.0933 1633.0869,-252 1637.3464,-250.896 1641.7559,-249.7282 1646.1797,-248.5393"/><polygon fill="#000" stroke="#000" points="1647.1 -251.916 1655.834 -245.919 1645.266 -245.161 1647.1 -251.916"/></g><g id="node32" class="node"><title>test/system/mdb</title><polygon fill="none" stroke="#000" points="1879.584 -324 1772.59 -324 1772.59 -288 1879.584 -288 1879.584 -324"/><text x="1826.087" y="-301.8" fill="#000" font-family="Times,serif" font-size="14" text-anchor="middle">test/system/mdb</text></g><g id="edge41" class="edge"><title>test/system/mdb-&gt;system_test</title><path fill="none" stroke="#000" d="M1793.7871,-287.8314C1775.8391,-277.7356 1753.441,-265.1367 1734.8267,-254.6661"/><polygon fill="#000" stroke="#000" points="1736.46 -251.569 1726.029 -249.717 1733.029 -257.671 1736.46 -251.569"/></g><g id="node33" class="node"><title>test/system/pdb</title><polygon fill="none" stroke="#000" points="2000.694 -324 1897.48 -324 1897.48 -288 2000.694 -288 2000.694 -324"/><text x="1949.087" y="-301.8" fill="#000" font-family="Times,serif" font-size="14" text-anchor="middle">test/system/pdb</text></g><g id="edge42" class="edge"><title>test/system/pdb-&gt;system_test</title><path fill="none" stroke="#000" d="M1897.5129,-290.7419C1894.3243,-289.8108 1891.1626,-288.8908 1888.0869,-288 1841.5225,-274.5131 1788.4463,-259.4547 1750.2495,-248.6731"/><polygon fill="#000" stroke="#000" points="1750.956 -245.236 1740.381 -245.889 1749.055 -251.973 1750.956 -245.236"/></g><g id="node34" class="node"><title>test/system/pp</title><polygon fill="none" stroke="#000" points="2115.194 -324 2018.98 -324 2018.98 -288 2115.194 -288 2115.194 -324"/><text x="2067.087" y="-301.8" fill="#000" font-family="Times,serif" font-size="14" text-anchor="middle">test/system/pp</text></g><g id="edge43" class="edge"><title>test/system/pp-&gt;system_test</title><path fill="none" stroke="#000" d="M2019.0132,-290.3186C2016.0043,-289.4925 2013.0111,-288.7114 2010.0869,-288 1924.4507,-267.1678 1823.7068,-251.2492 1760.3658,-242.2604"/><polygon fill="#000" stroke="#000" points="1760.534 -238.75 1750.144 -240.824 1759.56 -245.682 1760.534 -238.75"/></g><g id="node35" class="node"><title>test/unit/core</title><polygon fill="none" stroke="#000" points="218.68 -396 129.494 -396 129.494 -360 218.68 -360 218.68 -396"/><text x="174.087" y="-373.8" fill="#000" font-family="Times,serif" font-size="14" text-anchor="middle">test/unit/core</text></g><g id="edge44" class="edge"><title>test/unit/core-&gt;engine/constant</title><path fill="none" stroke="#000" d="M174.0869,-359.8314C174.0869,-352.131 174.0869,-342.9743 174.0869,-334.4166"/><polygon fill="#000" stroke="#000" points="177.587 -334.413 174.087 -324.413 170.587 -334.413 177.587 -334.413"/></g><g id="edge45" class="edge"><title>test/unit/core-&gt;mock</title><path fill="none" stroke="#000" d="M204.8727,-359.8314C223.314,-348.9479 246.6843,-335.1557 265.1521,-324.2566"/><polygon fill="#000" stroke="#000" points="266.948 -327.261 273.781 -319.164 263.39 -321.232 266.948 -327.261"/></g><g id="node36" class="node"><title>test/unit/data</title><polygon fill="none" stroke="#000" points="1518.41 -108 1429.764 -108 1429.764 -72 1518.41 -72 1518.41 -108"/><text x="1474.087" y="-85.8" fill="#000" font-family="Times,serif" font-size="14" text-anchor="middle">test/unit/data</text></g><g id="edge46" class="edge"><title>test/unit/data-&gt;data</title><path fill="none" stroke="#000" d="M1465.0026,-71.8314C1460.8595,-63.5451 1455.8733,-53.5727 1451.3243,-44.4748"/><polygon fill="#000" stroke="#000" points="1454.399 -42.797 1446.796 -35.418 1448.138 -45.927 1454.399 -42.797"/></g><g id="node37" class="node"><title>test/unit/engine/clang</title><polygon fill="none" stroke="#000" points="1051.121 -324 915.053 -324 915.053 -288 1051.121 -288 1051.121 -324"/><text x="983.087" y="-301.8" fill="#000" font-family="Times,serif" font-size="14" text-anchor="middle">test/unit/engine/clang</text></g><g id="edge47" class="edge"><title>test/unit/engine/clang-&gt;engine/clang</title><path fill="none" stroke="#000" d="M964.666,-287.8314C955.6456,-278.9346 944.6544,-268.0939 934.9059,-258.4789"/><polygon fill="#000" stroke="#000" points="937.324 -255.948 927.747 -251.418 932.409 -260.932 937.324 -255.948"/></g><g id="node38" class="node"><title>test/unit/engine/templight</title><polygon fill="none" stroke="#000" points="665.968 -396 506.206 -396 506.206 -360 665.968 -360 665.968 -396"/><text x="586.087" y="-373.8" fill="#000" font-family="Times,serif" font-size="14" text-anchor="middle">test/unit/engine/templight</text></g><g id="edge48" class="edge"><title>test/unit/engine/templight-&gt;engine/templight</title><path fill="none" stroke="#000" d="M610.5641,-359.8314C623.1131,-350.5167 638.5326,-339.0712 651.9223,-329.1325"/><polygon fill="#000" stroke="#000" points="654.01 -331.942 659.953 -323.171 649.837 -326.321 654.01 -331.942"/></g><g id="edge49" class="edge"><title>test/unit/engine/templight-&gt;mock</title><path fill="none" stroke="#000" d="M506.0733,-361.3718C439.8679,-347.481 354.1662,-329.1443 338.0869,-324 335.6407,-323.2174 333.1415,-322.3448 330.6419,-321.4176"/><polygon fill="#000" stroke="#000" points="331.696 -318.071 321.11 -317.645 329.12 -324.579 331.696 -318.071"/></g><g id="node39" class="node"><title>test/unit/engine/vc</title><polygon fill="none" stroke="#000" points="1313.015 -324 1193.158 -324 1193.158 -288 1313.015 -288 1313.015 -324"/><text x="1253.087" y="-301.8" fill="#000" font-family="Times,serif" font-size="14" text-anchor="middle">test/unit/engine/vc</text></g><g id="edge50" class="edge"><title>test/unit/engine/vc-&gt;engine/vc</title><path fill="none" stroke="#000" d="M1250.8159,-287.8314C1249.8533,-280.131 1248.7087,-270.9743 1247.639,-262.4166"/><polygon fill="#000" stroke="#000" points="1251.102 -261.902 1246.389 -252.413 1244.156 -262.77 1251.102 -261.902"/></g><g id="node40" class="node"><title>test/unit/main_shell</title><polygon fill="none" stroke="#000" points="363.527 -396 236.647 -396 236.647 -360 363.527 -360 363.527 -396"/><text x="300.087" y="-373.8" fill="#000" font-family="Times,serif" font-size="14" text-anchor="middle">test/unit/main_shell</text></g><g id="edge51" class="edge"><title>test/unit/main_shell-&gt;engine/constant</title><path fill="none" stroke="#000" d="M268.2918,-359.8314C251.2814,-350.1111 230.2105,-338.0706 212.3127,-327.8433"/><polygon fill="#000" stroke="#000" points="213.7 -324.605 203.281 -322.682 210.227 -330.683 213.7 -324.605"/></g><g id="edge52" class="edge"><title>test/unit/main_shell-&gt;main_shell</title><path fill="none" stroke="#000" d="M325.3212,-359.8314C338.5457,-350.3097 354.8626,-338.5615 368.8756,-328.4722"/><polygon fill="#000" stroke="#000" points="371.184 -331.123 377.255 -322.439 367.094 -325.442 371.184 -331.123"/></g><g id="edge53" class="edge"><title>test/unit/main_shell-&gt;mock</title><path fill="none" stroke="#000" d="M299.0776,-359.8314C298.6498,-352.131 298.1411,-342.9743 297.6656,-334.4166"/><polygon fill="#000" stroke="#000" points="301.159 -334.204 297.11 -324.413 294.17 -334.592 301.159 -334.204"/></g><g id="node41" class="node"><title>test/unit/mdb</title><polygon fill="none" stroke="#000" points="111.98 -396 22.194 -396 22.194 -360 111.98 -360 111.98 -396"/><text x="67.087" y="-373.8" fill="#000" font-family="Times,serif" font-size="14" text-anchor="middle">test/unit/mdb</text></g><g id="edge54" class="edge"><title>test/unit/mdb-&gt;engine/constant</title><path fill="none" stroke="#000" d="M94.0876,-359.8314C108.1643,-350.3591 125.5156,-338.6835 140.4569,-328.6296"/><polygon fill="#000" stroke="#000" points="142.59 -331.413 148.933 -322.926 138.682 -325.605 142.59 -331.413"/></g><g id="edge55" class="edge"><title>test/unit/mdb-&gt;mdb</title><path fill="none" stroke="#000" d="M66.9208,-359.8066C67.7889,-339.171 72.5767,-306.0527 93.0869,-288 138.4917,-248.0358 321.6027,-237.59 402.4249,-234.9067"/><polygon fill="#000" stroke="#000" points="402.784 -238.397 412.671 -234.59 402.567 -231.401 402.784 -238.397"/></g><g id="node42" class="node"><title>test/unit/pragma</title><polygon fill="none" stroke="#000" points="488.57 -396 381.604 -396 381.604 -360 488.57 -360 488.57 -396"/><text x="435.087" y="-373.8" fill="#000" font-family="Times,serif" font-size="14" text-anchor="middle">test/unit/pragma</text></g><g id="edge56" class="edge"><title>test/unit/pragma-&gt;engine/constant</title><path fill="none" stroke="#000" d="M381.4831,-362.6371C378.305,-361.741 375.1547,-360.8565 372.0869,-360 325.4226,-346.9709 272.469,-332.5478 233.0727,-321.8875"/><polygon fill="#000" stroke="#000" points="233.928 -318.493 223.361 -319.262 232.101 -325.25 233.928 -318.493"/></g><g id="edge57" class="edge"><title>test/unit/pragma-&gt;main_shell</title><path fill="none" stroke="#000" d="M426.255,-359.8314C422.3288,-351.7547 417.6239,-342.0761 413.293,-333.1668"/><polygon fill="#000" stroke="#000" points="416.315 -331.377 408.795 -323.913 410.019 -334.437 416.315 -331.377"/></g><g id="edge58" class="edge"><title>test/unit/pragma-&gt;mock</title><path fill="none" stroke="#000" d="M400.0114,-359.8314C378.2935,-348.5818 350.5756,-334.2244 329.2281,-323.1667"/><polygon fill="#000" stroke="#000" points="330.699 -319.987 320.21 -318.495 327.479 -326.202 330.699 -319.987"/></g><g id="edge59" class="edge"><title>test/unit/pragma-&gt;pragma</title><path fill="none" stroke="#000" d="M454.265,-359.8314C464.0312,-350.5792 476.0164,-339.2247 486.458,-329.3327"/><polygon fill="#000" stroke="#000" points="488.882 -331.858 493.734 -322.439 484.068 -326.776 488.882 -331.858"/></g><g id="node43" class="node"><title>test/unit/process</title><polygon fill="none" stroke="#000" points="1455.569 -252 1348.605 -252 1348.605 -216 1455.569 -216 1455.569 -252"/><text x="1402.087" y="-229.8" fill="#000" font-family="Times,serif" font-size="14" text-anchor="middle">test/unit/process</text></g><g id="edge60" class="edge"><title>test/unit/process-&gt;process</title><path fill="none" stroke="#000" d="M1402.0869,-215.8314C1402.0869,-208.131 1402.0869,-198.9743 1402.0869,-190.4166"/><polygon fill="#000" stroke="#000" points="1405.587 -190.413 1402.087 -180.413 1398.587 -190.413 1405.587 -190.413"/></g><g id="node44" class="node"><title>test/unit/replace_part</title><polygon fill="none" stroke="#000" points="1017.265 -468 882.909 -468 882.909 -432 1017.265 -432 1017.265 -468"/><text x="950.087" y="-445.8" fill="#000" font-family="Times,serif" font-size="14" text-anchor="middle">test/unit/replace_part</text></g><g id="edge61" class="edge"><title>test/unit/replace_part-&gt;replace_part</title><path fill="none" stroke="#000" d="M945.0401,-431.8314C942.8776,-424.0463 940.3016,-414.7729 937.9021,-406.1347"/><polygon fill="#000" stroke="#000" points="941.251 -405.112 935.202 -396.413 934.506 -406.985 941.251 -405.112"/></g><g id="node45" class="node"><title>test/unit/system_test</title><polygon fill="none" stroke="#000" points="1623.416 -324 1492.758 -324 1492.758 -288 1623.416 -288 1623.416 -324"/><text x="1558.087" y="-301.8" fill="#000" font-family="Times,serif" font-size="14" text-anchor="middle">test/unit/system_test</text></g><g id="edge62" class="edge"><title>test/unit/system_test-&gt;system_test</title><path fill="none" stroke="#000" d="M1593.4149,-287.8314C1613.3645,-277.5715 1638.3408,-264.7266 1658.8919,-254.1575"/><polygon fill="#000" stroke="#000" points="1660.697 -257.165 1667.989 -249.479 1657.495 -250.94 1660.697 -257.165"/></g></g></svg>